<svg xmlns="http://www.w3.org/2000/svg" width="242" height="211.814" viewBox="0 0 242 211.814">
  <g id="ad" transform="translate(-296.11 -355.04)">
    <path id="Path_221" data-name="Path 221" d="M323,416.041c0-5.084,4.639-9.488,9.722-9.488h36.482c-6.439-12.254-19.8-20.333-34.605-20.333a38.5,38.5,0,0,0-11.6,75.2Z" fill="#e1e6ed"/>
    <path id="Path_222" data-name="Path 222" d="M517,442.381a11.725,11.725,0,0,0-6.569,2v19.56A11.781,11.781,0,1,0,517,442.381Z" fill="#e1e6ed"/>
    <path id="Path_223" data-name="Path 223" d="M458.11,527.9h-126a8.859,8.859,0,0,1-9-9" fill="none" stroke="#000" stroke-linecap="round" stroke-miterlimit="10" stroke-width="2"/>
    <path id="Path_224" data-name="Path 224" d="M465.11,407.9h36c5.084,0,9,4.916,9,10l.262,54.32" fill="none" stroke="#000" stroke-linecap="round" stroke-miterlimit="10" stroke-width="2"/>
    <path id="Path_225" data-name="Path 225" d="M323.983,477.641V430.52L323.9,417.1a9.2,9.2,0,0,1,9.2-9.205h99" fill="none" stroke="#000" stroke-linecap="round" stroke-miterlimit="10" stroke-width="2"/>
    <path id="Path_226" data-name="Path 226" d="M323.513,484.131" fill="none" stroke="#000" stroke-linecap="round" stroke-miterlimit="10" stroke-width="2"/>
    <path id="Path_227" data-name="Path 227" d="M323.513,501.664" fill="none" stroke="#000" stroke-linecap="round" stroke-miterlimit="10" stroke-width="2"/>
    <line id="Line_223" data-name="Line 223" x1="112" transform="translate(352.11 540.896)" fill="none" stroke="#000" stroke-linecap="round" stroke-miterlimit="10" stroke-width="2"/>
    <path id="Path_228" data-name="Path 228" d="M510.058,430.3" fill="none" stroke="#000" stroke-linecap="round" stroke-miterlimit="10" stroke-width="2"/>
    <circle id="Ellipse_72" data-name="Ellipse 72" cx="2.509" cy="2.509" r="2.509" transform="translate(334.569 415.884)" fill="#b078f0" stroke="#000" stroke-linecap="round" stroke-miterlimit="10" stroke-width="2"/>
    <circle id="Ellipse_73" data-name="Ellipse 73" cx="2.509" cy="2.509" r="2.509" transform="translate(343.979 415.884)" fill="#03d2da" stroke="#000" stroke-linecap="round" stroke-miterlimit="10" stroke-width="2"/>
    <circle id="Ellipse_74" data-name="Ellipse 74" cx="2.509" cy="2.509" r="2.509" transform="translate(353.327 415.884)" fill="none" stroke="#000" stroke-linecap="round" stroke-miterlimit="10" stroke-width="2"/>
    <g id="Group_96" data-name="Group 96">
      <path id="Path_229" data-name="Path 229" d="M464.11,516.9c0,18.982,16.017,34,35,34s35-16.018,35-35-16.017-34-35-34S464.11,497.913,464.11,516.9Z" fill="#03d2da"/>
      <path id="Path_230" data-name="Path 230" d="M467.11,512.9c0,18.982,14.017,34,33,34s36-15.018,36-34-16.017-35-35-35S467.11,493.913,467.11,512.9Z" fill="none" stroke="#000" stroke-linecap="round" stroke-miterlimit="10" stroke-width="2"/>
      <g id="Group_95" data-name="Group 95">
        <path id="Path_231" data-name="Path 231" d="M504.75,513.188h-6.859a6.849,6.849,0,0,1-6.781-6.916h0a6.85,6.85,0,0,1,6.781-6.917H510.04" fill="none" stroke="#000" stroke-linecap="round" stroke-miterlimit="10" stroke-width="2"/>
        <path id="Path_232" data-name="Path 232" d="M498.406,513.188h6.859a6.85,6.85,0,0,1,6.781,6.917h0a6.85,6.85,0,0,1-6.781,6.917H492.934" fill="none" stroke="#000" stroke-linecap="round" stroke-miterlimit="10" stroke-width="2"/>
        <line id="Line_224" data-name="Line 224" y2="7" transform="translate(503.11 491.896)" fill="none" stroke="#000" stroke-linecap="round" stroke-linejoin="round" stroke-width="2"/>
        <line id="Line_225" data-name="Line 225" y2="6" transform="translate(502.11 527.896)" fill="none" stroke="#000" stroke-linecap="round" stroke-linejoin="round" stroke-width="2"/>
      </g>
      <path id="Path_233" data-name="Path 233" d="M508.11,541.9a29.447,29.447,0,0,0,23.717-26.586" fill="none" stroke="#fff" stroke-linecap="round" stroke-miterlimit="10" stroke-width="2"/>
      <path id="Path_234" data-name="Path 234" d="M472.11,512.9a6.925,6.925,0,0,0,0,5" fill="none" stroke="#fff" stroke-linecap="round" stroke-miterlimit="10" stroke-width="2"/>
      <path id="Path_235" data-name="Path 235" d="M495.11,483.9a30.082,30.082,0,0,0-21,18" fill="none" stroke="#fff" stroke-linecap="round" stroke-miterlimit="10" stroke-width="2"/>
    </g>
    <g id="Group_97" data-name="Group 97">
      <rect id="Rectangle_66" data-name="Rectangle 66" width="28" height="28" rx="6.242" transform="translate(308.11 484.896)" fill="#b078f0"/>
      <rect id="Rectangle_67" data-name="Rectangle 67" width="27.931" height="28" rx="6.242" transform="translate(310.179 482.896)" fill="none" stroke="#000" stroke-linecap="round" stroke-miterlimit="10" stroke-width="2"/>
      <path id="Path_236" data-name="Path 236" d="M318.36,496.545l3.7,3.686L330,492.314" fill="none" stroke="#fff" stroke-linecap="round" stroke-miterlimit="10" stroke-width="2"/>
    </g>
    <path id="Path_237" data-name="Path 237" d="M413.121,371.911,410.11,368.9a5.571,5.571,0,0,1,0-8l3-3a5.806,5.806,0,0,1,8.19-.307l3.072,3.072a5.784,5.784,0,0,1,0,8.179l-3.072,3.071A5.783,5.783,0,0,1,413.121,371.911Z" fill="none" stroke="#000" stroke-linecap="round" stroke-miterlimit="10" stroke-width="2"/>
    <path id="Path_238" data-name="Path 238" d="M537.11,434.9a5,5,0,0,1-10,0c0-2.918,1-6,5-6S537.11,431.978,537.11,434.9Z" fill="none" stroke="#000" stroke-linecap="round" stroke-miterlimit="10" stroke-width="2"/>
    <path id="Path_239" data-name="Path 239" d="M346.145,390.037l4.823,5.337,4.935-4.935,5.383,5.383,6.182-6.182,6.28,6.28,6.46-5.883,5.94,5.435,5.414-5.435" fill="none" stroke="#000" stroke-linecap="round" stroke-miterlimit="10" stroke-width="2"/>
    <path id="Path_240" data-name="Path 240" d="M495.867,389.379l5.383,5.383,6.182-6.182,6.28,6.28,6.425-6.425" fill="none" stroke="#000" stroke-linecap="round" stroke-miterlimit="10" stroke-width="2"/>
    <g id="Group_101" data-name="Group 101">
      <g id="Group_98" data-name="Group 98">
        <line id="Line_226" data-name="Line 226" x2="17.155" transform="translate(365.176 449.962)" fill="none" stroke="#000" stroke-linecap="round" stroke-miterlimit="10" stroke-width="2"/>
        <line id="Line_227" data-name="Line 227" x2="72.912" transform="translate(396.334 449.962)" fill="none" stroke="#000" stroke-linecap="round" stroke-miterlimit="10" stroke-width="2"/>
      </g>
      <g id="Group_99" data-name="Group 99">
        <line id="Line_228" data-name="Line 228" x2="58.838" transform="translate(388.11 462.896)" fill="none" stroke="#000" stroke-linecap="round" stroke-miterlimit="10" stroke-width="2"/>
      </g>
      <path id="Path_241" data-name="Path 241" d="M433.1,490.34h2.7c4.456,0,8.308-2.8,8.308-7.226h0a8.21,8.21,0,0,0-8.021-8.258H398.178a8.25,8.25,0,0,0-8.068,8.258h0a7.845,7.845,0,0,0,8.068,7.782h10.814" fill="#e1e6ed" stroke="#000" stroke-linecap="round" stroke-miterlimit="10" stroke-width="2"/>
      <g id="Group_100" data-name="Group 100">
        <path id="Path_242" data-name="Path 242" d="M426.532,489.976l-11.889-5.08-2.533,12.678,3.514-1.851,7.336,13.926,7.394-3.9-7.336-13.926Z" fill="#b078f0"/>
        <path id="Path_243" data-name="Path 243" d="M428.083,490.939l-11.889-5.08-2.533,12.678,3.514-1.851,7.336,13.926,7.394-3.9-7.336-13.926Z" fill="none" stroke="#000" stroke-linecap="round" stroke-miterlimit="10" stroke-width="2"/>
      </g>
    </g>
    <g id="Group_102" data-name="Group 102">
      <circle id="Ellipse_75" data-name="Ellipse 75" cx="3.353" cy="3.353" r="3.353" transform="translate(439.33 397.067)" fill="#03d2da" stroke="#000" stroke-linecap="round" stroke-miterlimit="10" stroke-width="2"/>
      <circle id="Ellipse_76" data-name="Ellipse 76" cx="3.353" cy="3.353" r="3.353" transform="translate(453.019 410.756)" fill="#03d2da" stroke="#000" stroke-linecap="round" stroke-miterlimit="10" stroke-width="2"/>
      <path id="Path_244" data-name="Path 244" d="M461.4,395.92,447.027,410.3l-8.477,8.477" fill="none" stroke="#000" stroke-linecap="round" stroke-miterlimit="10" stroke-width="2"/>
    </g>
    <g id="Group_103" data-name="Group 103">
      <line id="Line_229" data-name="Line 229" y1="2.064" x2="2.064" transform="translate(319.852 544.794)" fill="none" stroke="#000" stroke-linecap="round" stroke-miterlimit="10" stroke-width="2"/>
      <line id="Line_230" data-name="Line 230" y1="2.064" x2="2.064" transform="translate(329.142 544.794)" fill="none" stroke="#000" stroke-linecap="round" stroke-miterlimit="10" stroke-width="2"/>
      <line id="Line_231" data-name="Line 231" y1="2.064" x2="2.064" transform="translate(338.432 544.794)" fill="none" stroke="#000" stroke-linecap="round" stroke-miterlimit="10" stroke-width="2"/>
      <line id="Line_232" data-name="Line 232" y1="2.064" x2="2.064" transform="translate(319.852 554.085)" fill="none" stroke="#000" stroke-linecap="round" stroke-miterlimit="10" stroke-width="2"/>
      <line id="Line_233" data-name="Line 233" y1="2.064" x2="2.064" transform="translate(329.142 554.085)" fill="none" stroke="#000" stroke-linecap="round" stroke-miterlimit="10" stroke-width="2"/>
      <line id="Line_234" data-name="Line 234" y1="2.064" x2="2.064" transform="translate(338.432 554.085)" fill="none" stroke="#000" stroke-linecap="round" stroke-miterlimit="10" stroke-width="2"/>
      <line id="Line_235" data-name="Line 235" y1="2.064" x2="2.064" transform="translate(319.852 563.375)" fill="none" stroke="#000" stroke-linecap="round" stroke-miterlimit="10" stroke-width="2"/>
      <line id="Line_236" data-name="Line 236" y1="2.064" x2="2.064" transform="translate(329.142 563.375)" fill="none" stroke="#000" stroke-linecap="round" stroke-miterlimit="10" stroke-width="2"/>
      <line id="Line_237" data-name="Line 237" y1="2.064" x2="2.064" transform="translate(338.432 563.375)" fill="none" stroke="#000" stroke-linecap="round" stroke-miterlimit="10" stroke-width="2"/>
    </g>
    <line id="Line_238" data-name="Line 238" x1="186" transform="translate(324.11 429.896)" fill="none" stroke="#000" stroke-linecap="round" stroke-miterlimit="10" stroke-width="2"/>
  </g>
</svg>
