<svg xmlns="http://www.w3.org/2000/svg" width="242.665" height="193.234" viewBox="0 0 242.665 193.234">
  <g id="analysis" transform="translate(-1021.009 -1070.845)">
    <circle id="Ellipse_7" data-name="Ellipse 7" cx="11.569" cy="11.569" r="11.569" transform="translate(1175.96 1074.094)" fill="#e1e6ed"/>
    <rect id="Rectangle_6" data-name="Rectangle 6" width="39.876" height="39.876" rx="11.259" transform="matrix(0.359, 0.934, -0.934, 0.359, 1246.005, 1128.271)" fill="#03d2da"/>
    <rect id="Rectangle_7" data-name="Rectangle 7" width="39.876" height="39.876" rx="11.259" transform="matrix(0.359, 0.934, -0.934, 0.359, 1248.084, 1124.326)" fill="none" stroke="#000" stroke-linecap="round" stroke-miterlimit="10" stroke-width="2"/>
    <path id="Path_21" data-name="Path 21" d="M1072.914,1076.8h0a10.286,10.286,0,0,0,11.251,4.66h0a10.287,10.287,0,0,1,12.442,12.443h0a10.285,10.285,0,0,0,4.66,11.25h0a10.286,10.286,0,0,1,0,17.6h0a10.285,10.285,0,0,0-4.66,11.25h0a10.287,10.287,0,0,1-12.442,12.443h0a10.286,10.286,0,0,0-11.251,4.66h0a10.286,10.286,0,0,1-17.6,0h0a10.285,10.285,0,0,0-11.25-4.66h0A10.287,10.287,0,0,1,1031.625,1134h0a10.285,10.285,0,0,0-4.66-11.25h0a10.287,10.287,0,0,1,0-17.6h0a10.285,10.285,0,0,0,4.66-11.25h0a10.287,10.287,0,0,1,12.443-12.443h0a10.285,10.285,0,0,0,11.25-4.66h0A10.286,10.286,0,0,1,1072.914,1076.8Z" fill="none" stroke="#000" stroke-linecap="round" stroke-miterlimit="10" stroke-width="2"/>
    <circle id="Ellipse_8" data-name="Ellipse 8" cx="27.971" cy="27.971" r="27.971" transform="translate(1036.555 1085.982)" fill="none"/>
    <g id="Group_9" data-name="Group 9">
      <line id="Line_12" data-name="Line 12" y1="2.235" x2="2.235" transform="translate(1193.877 1083.428)" fill="none" stroke="#000" stroke-linecap="round" stroke-miterlimit="10" stroke-width="2"/>
      <line id="Line_13" data-name="Line 13" y1="2.235" x2="2.235" transform="translate(1204.815 1083.428)" fill="none" stroke="#000" stroke-linecap="round" stroke-miterlimit="10" stroke-width="2"/>
      <line id="Line_14" data-name="Line 14" y1="2.235" x2="2.235" transform="translate(1215.753 1083.428)" fill="none" stroke="#000" stroke-linecap="round" stroke-miterlimit="10" stroke-width="2"/>
      <line id="Line_15" data-name="Line 15" y1="2.235" x2="2.235" transform="translate(1193.877 1094.365)" fill="none" stroke="#000" stroke-linecap="round" stroke-miterlimit="10" stroke-width="2"/>
      <line id="Line_16" data-name="Line 16" y1="2.235" x2="2.235" transform="translate(1204.815 1094.365)" fill="none" stroke="#000" stroke-linecap="round" stroke-miterlimit="10" stroke-width="2"/>
      <line id="Line_17" data-name="Line 17" y1="2.235" x2="2.235" transform="translate(1215.753 1094.365)" fill="none" stroke="#000" stroke-linecap="round" stroke-miterlimit="10" stroke-width="2"/>
      <line id="Line_18" data-name="Line 18" y1="2.235" x2="2.235" transform="translate(1193.877 1105.927)" fill="none" stroke="#000" stroke-linecap="round" stroke-miterlimit="10" stroke-width="2"/>
      <line id="Line_19" data-name="Line 19" y1="2.235" x2="2.235" transform="translate(1204.815 1105.927)" fill="none" stroke="#000" stroke-linecap="round" stroke-miterlimit="10" stroke-width="2"/>
      <line id="Line_20" data-name="Line 20" y1="2.235" x2="2.235" transform="translate(1215.753 1105.927)" fill="none" stroke="#000" stroke-linecap="round" stroke-miterlimit="10" stroke-width="2"/>
    </g>
    <circle id="Ellipse_9" data-name="Ellipse 9" cx="46.602" cy="46.602" r="46.602" transform="translate(1055.216 1170.875)" fill="#e1e6ed"/>
    <g id="Group_10" data-name="Group 10">
      <line id="Line_21" data-name="Line 21" y1="3.809" transform="translate(1068.203 1174.288)" fill="none" stroke="#000" stroke-linecap="round" stroke-miterlimit="10" stroke-width="2"/>
      <path id="Path_22" data-name="Path 22" d="M1068.2,1183.8" fill="none" stroke="#000" stroke-linecap="round" stroke-miterlimit="10" stroke-width="2"/>
      <path id="Path_23" data-name="Path 23" d="M1068.2,1185.744" fill="none" stroke="#000" stroke-linecap="round" stroke-miterlimit="10" stroke-width="2"/>
      <line id="Line_22" data-name="Line 22" x2="3.809" transform="translate(1057.718 1184.774)" fill="none" stroke="#000" stroke-linecap="round" stroke-miterlimit="10" stroke-width="2"/>
      <line id="Line_23" data-name="Line 23" x2="3.809" transform="translate(1074.88 1184.774)" fill="none" stroke="#000" stroke-linecap="round" stroke-miterlimit="10" stroke-width="2"/>
      <line id="Line_24" data-name="Line 24" y1="4.432" transform="translate(1068.203 1191.451)" fill="none" stroke="#000" stroke-linecap="round" stroke-miterlimit="10" stroke-width="2"/>
    </g>
    <g id="Group_13" data-name="Group 13">
      <g id="Group_12" data-name="Group 12">
        <path id="Path_24" data-name="Path 24" d="M1120.034,1146.492v-56.147a9.962,9.962,0,0,1,9.963-9.963h47.069a9.962,9.962,0,0,1,9.963,9.963v54.667" fill="none" stroke="#000" stroke-linecap="round" stroke-miterlimit="10" stroke-width="2"/>
        <path id="Path_25" data-name="Path 25" d="M1187.029,1195.99v1.2a9.963,9.963,0,0,1-9.963,9.964h-41.559" fill="none" stroke="#000" stroke-linecap="round" stroke-miterlimit="10" stroke-width="2"/>
        <circle id="Ellipse_10" data-name="Ellipse 10" cx="4.717" cy="4.717" r="4.717" transform="translate(1148.815 1192.55)" fill="none" stroke="#000" stroke-linecap="round" stroke-miterlimit="10" stroke-width="2"/>
        <g id="Group_11" data-name="Group 11">
          <circle id="Ellipse_11" data-name="Ellipse 11" cx="1.268" cy="1.268" r="1.268" transform="translate(1142.521 1087.725)"/>
          <line id="Line_25" data-name="Line 25" x2="15.618" transform="translate(1148.923 1088.994)" fill="none" stroke="#000" stroke-linecap="round" stroke-miterlimit="10" stroke-width="2"/>
        </g>
        <line id="Line_26" data-name="Line 26" x2="33.933" transform="translate(1128.37 1187.002)" fill="none" stroke="#000" stroke-linecap="round" stroke-miterlimit="10" stroke-width="2"/>
        <line id="Line_27" data-name="Line 27" x2="66.996" transform="translate(1120.034 1095.795)" fill="none" stroke="#000" stroke-linecap="round" stroke-miterlimit="10" stroke-width="2"/>
      </g>
      <path id="Path_26" data-name="Path 26" d="M1105.937,1233.036l2.264-12.453a19.785,19.785,0,0,0-2.688-14.027h0a19.786,19.786,0,0,1-3.008-10.488V1176.6a10.8,10.8,0,0,1,1.29-5.118l14.255-26.474,3.685,2.749a13.193,13.193,0,0,1,3.788,16.716l-7.069,13.443a37.733,37.733,0,0,1,17.161,32.3" fill="none" stroke="#000" stroke-linecap="round" stroke-miterlimit="10" stroke-width="2"/>
      <path id="Path_27" data-name="Path 27" d="M1147.93,1239.3l1.279-6.139a10.8,10.8,0,0,1,3.475-5.936l23.026-20.069" fill="none" stroke="#000" stroke-linecap="round" stroke-miterlimit="10" stroke-width="2"/>
      <rect id="Rectangle_8" data-name="Rectangle 8" width="26.543" height="13.553" rx="6.176" transform="translate(1164.901 1184.564) rotate(-16.354)" fill="none" stroke="#000" stroke-linecap="round" stroke-miterlimit="10" stroke-width="2"/>
      <rect id="Rectangle_9" data-name="Rectangle 9" width="26.543" height="13.553" rx="6.176" transform="translate(1164.901 1170.336) rotate(-16.354)" fill="none" stroke="#000" stroke-linecap="round" stroke-miterlimit="10" stroke-width="2"/>
      <rect id="Rectangle_10" data-name="Rectangle 10" width="26.543" height="13.553" rx="6.176" transform="translate(1165.115 1156.002) rotate(-16.354)" fill="none" stroke="#000" stroke-linecap="round" stroke-miterlimit="10" stroke-width="2"/>
      <path id="Path_28" data-name="Path 28" d="M1187.146,1119.831a6.777,6.777,0,0,1,9.537.947h0a6.777,6.777,0,0,1-.947,9.537l-8.707,7.133" fill="none" stroke="#000" stroke-linecap="round" stroke-miterlimit="10" stroke-width="2"/>
      <path id="Path_29" data-name="Path 29" d="M1139.246,1238.953l11.425,1.643a4.453,4.453,0,0,1,3.76,5.127l-2.623,16.034" fill="none" stroke="#000" stroke-linecap="round" stroke-miterlimit="10" stroke-width="2"/>
      <line id="Line_28" data-name="Line 28" x2="6.318" y2="0.908" transform="translate(1129.297 1237.523)" fill="none" stroke="#000" stroke-linecap="round" stroke-miterlimit="10" stroke-width="2"/>
      <path id="Path_30" data-name="Path 30" d="M1093.995,1256.162l3.35-18.883a4.452,4.452,0,0,1,5.018-3.629l23.708,3.409" fill="none" stroke="#000" stroke-linecap="round" stroke-miterlimit="10" stroke-width="2"/>
      <circle id="Ellipse_12" data-name="Ellipse 12" cx="2.358" cy="2.358" r="2.358" transform="translate(1141.898 1246.15)" fill="none" stroke="#000" stroke-linecap="round" stroke-miterlimit="10" stroke-width="2"/>
    </g>
    <g id="Group_14" data-name="Group 14">
      <rect id="Rectangle_11" data-name="Rectangle 11" width="16.355" height="65.77" rx="5.473" transform="translate(1217.997 1197.348)" fill="#b078f0"/>
      <rect id="Rectangle_12" data-name="Rectangle 12" width="16.355" height="42.177" rx="5.473" transform="translate(1192.147 1220.941)" fill="#b078f0"/>
      <rect id="Rectangle_13" data-name="Rectangle 13" width="16.355" height="23.555" rx="5.473" transform="translate(1166.092 1239.563)" fill="#b078f0"/>
      <rect id="Rectangle_14" data-name="Rectangle 14" width="16.355" height="42.125" rx="5.473" transform="translate(1194.67 1218.5)" fill="none" stroke="#000" stroke-linecap="round" stroke-miterlimit="10" stroke-width="2"/>
      <rect id="Rectangle_15" data-name="Rectangle 15" width="16.355" height="23.765" rx="5.473" transform="translate(1168.196 1236.861)" fill="none" stroke="#000" stroke-linecap="round" stroke-miterlimit="10" stroke-width="2"/>
      <rect id="Rectangle_16" data-name="Rectangle 16" width="16.355" height="65.77" rx="5.473" transform="translate(1220.49 1194.856)" fill="none" stroke="#000" stroke-linecap="round" stroke-miterlimit="10" stroke-width="2"/>
      <rect id="Rectangle_17" data-name="Rectangle 17" width="16.355" height="42.125" rx="5.473" transform="translate(1194.67 1218.5)" fill="none" stroke="#000" stroke-linecap="round" stroke-miterlimit="10" stroke-width="2"/>
      <rect id="Rectangle_18" data-name="Rectangle 18" width="16.355" height="23.765" rx="5.473" transform="translate(1168.196 1236.861)" fill="none" stroke="#000" stroke-linecap="round" stroke-miterlimit="10" stroke-width="2"/>
    </g>
    <g id="Group_17" data-name="Group 17">
      <g id="Group_15" data-name="Group 15">
        <line id="Line_29" data-name="Line 29" x2="6.425" transform="translate(1135.043 1125.75)" fill="none" stroke="#000" stroke-linecap="round" stroke-miterlimit="10" stroke-width="2"/>
        <line id="Line_30" data-name="Line 30" x2="27.306" transform="translate(1146.712 1125.75)" fill="none" stroke="#000" stroke-linecap="round" stroke-miterlimit="10" stroke-width="2"/>
      </g>
      <g id="Group_16" data-name="Group 16">
        <line id="Line_31" data-name="Line 31" x2="22.086" transform="translate(1143.488 1131.941)" fill="none" stroke="#000" stroke-linecap="round" stroke-miterlimit="10" stroke-width="2"/>
      </g>
      <path id="Path_31" data-name="Path 31" d="M1161.826,1146.814h1.213a3.622,3.622,0,0,0,3.622-3.622h0a3.623,3.623,0,0,0-3.622-3.622h-17.017a3.622,3.622,0,0,0-3.621,3.622h0a3.622,3.622,0,0,0,3.621,3.622h10.462" fill="#03d2da" stroke="#000" stroke-linecap="round" stroke-miterlimit="10" stroke-width="2"/>
    </g>
    <g id="Group_18" data-name="Group 18">
      <circle id="Ellipse_13" data-name="Ellipse 13" cx="4.84" cy="4.84" r="4.84" transform="translate(1050.517 1104.442)" fill="none" stroke="#000" stroke-linecap="round" stroke-miterlimit="10" stroke-width="2"/>
      <circle id="Ellipse_14" data-name="Ellipse 14" cx="4.84" cy="4.84" r="4.84" transform="translate(1068.035 1113.84)" fill="none" stroke="#000" stroke-linecap="round" stroke-miterlimit="10" stroke-width="2"/>
      <line id="Line_32" data-name="Line 32" x1="15.608" y2="29.18" transform="translate(1056.796 1099.363)" fill="#e1e6ed" stroke="#000" stroke-linecap="round" stroke-miterlimit="10" stroke-width="2"/>
    </g>
    <g id="Group_19" data-name="Group 19">
      <path id="Path_32" data-name="Path 32" d="M1042.629,1099.186a26.073,26.073,0,0,0,36.546,36.051" fill="none" stroke="#000" stroke-linecap="round" stroke-miterlimit="10" stroke-width="2"/>
      <path id="Path_33" data-name="Path 33" d="M1085.189,1129.305a26.075,26.075,0,0,0-34.43-37.745" fill="none" stroke="#000" stroke-linecap="round" stroke-miterlimit="10" stroke-width="2"/>
      <circle id="Ellipse_15" data-name="Ellipse 15" cx="0.769" cy="0.769" r="0.769" transform="translate(1046.412 1093.614)"/>
      <circle id="Ellipse_16" data-name="Ellipse 16" cx="0.769" cy="0.769" r="0.769" transform="translate(1081.439 1131.581)"/>
    </g>
    <g id="Group_20" data-name="Group 20">
      <path id="Path_34" data-name="Path 34" d="M1238.876,1150.6l-3.922-1.563a4.218,4.218,0,0,1-2.3-5.5h0a4.216,4.216,0,0,1,5.454-2.408l6.946,2.769" fill="none" stroke="#fff" stroke-linecap="round" stroke-miterlimit="10" stroke-width="2"/>
      <path id="Path_35" data-name="Path 35" d="M1235.249,1149.15l3.921,1.564a4.216,4.216,0,0,1,2.3,5.5h0a4.217,4.217,0,0,1-5.454,2.409l-7.05-2.812" fill="none" stroke="#fff" stroke-linecap="round" stroke-miterlimit="10" stroke-width="2"/>
      <path id="Path_36" data-name="Path 36" d="M1241.634,1140.252l.783-1.965-.783,1.965-.784,1.965Z" fill="none" stroke="#fff" stroke-linecap="round" stroke-linejoin="round" stroke-width="2"/>
      <path id="Path_37" data-name="Path 37" d="M1233.758,1160l.784-1.965-.784,1.965-.783,1.965Z" fill="none" stroke="#fff" stroke-linecap="round" stroke-linejoin="round" stroke-width="2"/>
    </g>
    <rect id="Rectangle_19" data-name="Rectangle 19" width="14.144" height="14.144" rx="5.304" transform="translate(1054.448 1229.562) rotate(45)" fill="#03d2da"/>
    <rect id="Rectangle_20" data-name="Rectangle 20" width="14.144" height="14.144" rx="5.304" transform="translate(1057.78 1229.033) rotate(45)" fill="none" stroke="#000" stroke-linecap="round" stroke-miterlimit="10" stroke-width="2"/>
  </g>
</svg>
