<svg xmlns="http://www.w3.org/2000/svg" width="405.594" height="80.562" viewBox="0 0 405.594 80.562">
  <g id="ft_logo" transform="translate(-200.061 -467.702)">
    <g id="Group_2" data-name="Group 2" transform="translate(200.061 467.702)">
      <g id="Group_1" data-name="Group 1">
        <path id="Path_1" data-name="Path 1" d="M291.942,548.263a6.6,6.6,0,0,1-.867-.052,7.438,7.438,0,0,1-5.473-3.484,31.614,31.614,0,0,0-52.652-1.734,7.455,7.455,0,0,1-11.358.97l-19.349-19.349a7.453,7.453,0,0,1,0-10.539l38.57-38.57a26.466,26.466,0,0,1,18.838-7.8h0a26.475,26.475,0,0,1,18.841,7.811l39.378,39.4a7.449,7.449,0,0,1-.007,10.543l-20.658,20.63A7.462,7.462,0,0,1,291.942,548.263ZM258.67,514.815a46.241,46.241,0,0,1,34.011,14.725l9.379-9.365-34.111-34.125a11.637,11.637,0,0,0-8.3-3.439h0a11.654,11.654,0,0,0-8.3,3.436l-33.3,33.3,8.423,8.419A46.5,46.5,0,0,1,258.67,514.815Z" transform="translate(-200.061 -467.702)" fill="#fff"/>
      </g>
    </g>
    <g id="Group_3" data-name="Group 3" transform="translate(332.929 483.49)">
      <path id="Path_2" data-name="Path 2" d="M273.764,507.323h-22.3l-4.393,10.319h-8.537L258.6,473.049h8.153l20.133,44.592h-8.668Zm-2.738-6.5-8.409-19.494-8.343,19.494Z" transform="translate(-238.537 -470.373)" fill="#fff"/>
      <path id="Path_3" data-name="Path 3" d="M310.852,490.908V510.4h-7.963V491.927c0-6.05-2.8-8.982-7.646-8.982-5.225,0-8.854,3.439-8.854,10.194V510.4h-7.963V491.927c0-6.05-2.8-8.982-7.646-8.982-5.287,0-8.854,3.439-8.854,10.194V510.4h-7.963V476.383h7.58v4.334c2.549-3.059,6.5-4.717,11.151-4.717,4.966,0,9.106,1.851,11.465,5.674C286.9,478.169,291.486,476,296.9,476,305.116,476,310.852,480.652,310.852,490.908Z" transform="translate(-200.693 -463.133)" fill="#fff"/>
      <path id="Path_4" data-name="Path 4" d="M306.9,490.908V510.4h-7.967V491.927c0-6.05-2.994-8.982-8.091-8.982-5.667,0-9.493,3.439-9.493,10.256v17.2h-7.96V476.383h7.58v4.4c2.614-3.122,6.751-4.779,11.72-4.779C300.851,476,306.9,480.652,306.9,490.908Z" transform="translate(-153.023 -463.133)" fill="#fff"/>
      <path id="Path_5" data-name="Path 5" d="M316.229,490.462V510.4h-7.514v-4.141c-1.913,2.932-5.608,4.586-10.705,4.586-7.77,0-12.677-4.268-12.677-10.191,0-5.67,3.823-10.129,14.145-10.129h8.792v-.511c0-4.652-2.8-7.39-8.474-7.39A16.849,16.849,0,0,0,289.474,486l-3.122-5.8c3.633-2.8,8.92-4.206,14.4-4.206C310.563,476,316.229,480.652,316.229,490.462Zm-7.96,9.3v-3.951h-8.219c-5.418,0-6.879,2.037-6.879,4.524,0,2.866,2.421,4.714,6.5,4.714C303.552,505.052,306.93,503.267,308.27,499.765Z" transform="translate(-123.734 -463.133)" fill="#fff"/>
      <path id="Path_6" data-name="Path 6" d="M332.637,472.274v47.268h-7.646v-4.4c-2.676,3.25-6.627,4.842-11.278,4.842-9.873,0-17.2-6.879-17.2-17.453s7.324-17.394,17.2-17.394c4.4,0,8.284,1.468,10.961,4.59V472.274ZM324.8,502.535c0-6.5-4.393-10.639-10.128-10.639s-10.128,4.14-10.128,10.639,4.4,10.64,10.128,10.64S324.8,509.031,324.8,502.535Z" transform="translate(-96.299 -472.274)" fill="#fff"/>
      <path id="Path_7" data-name="Path 7" d="M308.879,507.028l3.056-6.054a22.883,22.883,0,0,0,11.848,3.377c5.031,0,7.138-1.4,7.138-3.757,0-6.5-21.023-.383-21.023-13.951,0-6.437,5.8-10.643,14.97-10.643,4.52,0,9.683,1.084,12.739,2.932l-3.056,6.054a18.6,18.6,0,0,0-9.749-2.549c-4.838,0-7.131,1.592-7.131,3.823,0,6.879,21.024.763,21.024,14.079,0,6.371-5.864,10.508-15.419,10.508C317.606,510.847,311.935,509.193,308.879,507.028Z" transform="translate(-65.969 -463.133)" fill="#fff"/>
    </g>
    <g id="Group_4" data-name="Group 4" transform="translate(203.324 469.194)">
      <path id="Path_8" data-name="Path 8" d="M216.629,475.9a7.811,7.811,0,1,1-7.791-7.766A7.619,7.619,0,0,1,216.629,475.9Zm-1.285,0a6.366,6.366,0,0,0-6.506-6.551,6.6,6.6,0,1,0,6.506,6.551Zm-4.248,1.416,1.948,2.99h-1.906l-1.723-2.655h-1.972v2.655h-1.9v-8.719h3.629c2.3,0,3.678,1.191,3.678,3.032A2.714,2.714,0,0,1,211.1,477.316Zm-2.037-1.15c1.24,0,1.948-.577,1.948-1.547s-.708-1.53-1.948-1.53h-1.637v3.077Z" transform="translate(-201.006 -468.134)" fill="#fff"/>
    </g>
  </g>
</svg>
