<svg xmlns="http://www.w3.org/2000/svg" width="120.982" height="53.108" viewBox="0 0 120.982 53.108">
  <g id="hunger" transform="translate(0 0)">
    <path id="Path_1301" data-name="Path 1301" d="M801.756,470.473a3.985,3.985,0,0,0-.177-3.51l-2.652-4.771a10.985,10.985,0,0,0,.9-1.267,10.348,10.348,0,0,0,1.521-5.463,10.716,10.716,0,0,0-3.377-7.989,11.424,11.424,0,0,0-8-3.1H766.121a3.983,3.983,0,0,0-3.614,2.311,14.326,14.326,0,0,0-3.831-1.993,14.911,14.911,0,0,0-7.352-.583,14.523,14.523,0,0,0-6.822,2.952,3.985,3.985,0,0,0-3.766-2.688h-5.222a3.986,3.986,0,0,0-3.592,2.255l-.392-.559a3.987,3.987,0,0,0-3.263-1.7H715.8a3.986,3.986,0,0,1-5.75,0H704.8c-.591,0-2.641.059-3.182.059h-5.193a3.986,3.986,0,0,1-5.747,0h-5.222a3.986,3.986,0,0,0-3.986,3.986v20.42a3.984,3.984,0,0,0,2.14,3.531,9.955,9.955,0,0,0-1.628,5.6,9.428,9.428,0,0,0,1.95,6l-.848.493a3.986,3.986,0,0,0-1.744,4.8,11.2,11.2,0,0,0,4.58,5.719,13.715,13.715,0,0,0,7.556,2.014,12.732,12.732,0,0,0,8.14-2.567,9.647,9.647,0,0,0,1.892-1.993v.133a3.987,3.987,0,0,0,3.986,3.986s7.17.055,7.714.055l5.78-.025a3.986,3.986,0,0,0,3.819-2.844l.269-.843.609-.145.43.86a4.2,4.2,0,0,0,3.787,2.953l5.356.127c.644,0,2.679-.062,3.139-.062l5.346-.074a3.984,3.984,0,0,1,7.051,0h5.25a3.987,3.987,0,0,0,3.8-2.768,15.071,15.071,0,0,0,18.072.389,3.985,3.985,0,0,0,3.646,2.379h5.25a3.987,3.987,0,0,0,3.591-2.253l.39.556a3.987,3.987,0,0,0,3.263,1.7h4.048a3.986,3.986,0,0,0,3.986-3.986V472.05a3.97,3.97,0,0,0-.325-1.576" transform="translate(-681.098 -443.898)" fill="#fff"/>
    <path id="Path_1302" data-name="Path 1302" d="M831.4,1451.864a9.785,9.785,0,0,1-5.4-1.378,7.274,7.274,0,0,1-2.992-3.725l4.487-2.61a4.075,4.075,0,0,0,4.047,2.727q2.4,0,2.405-1.366,0-.9-1.387-1.454-.585-.242-2.573-.816a11.276,11.276,0,0,1-4.458-2.3,5.263,5.263,0,0,1-1.642-4.12,5.79,5.79,0,0,1,2.039-4.6,7.51,7.51,0,0,1,5.089-1.76,8.688,8.688,0,0,1,4.575,1.2,7.735,7.735,0,0,1,3.05,3.49l-4.4,2.581a3.3,3.3,0,0,0-3.2-2.288,2.252,2.252,0,0,0-1.422.384,1.189,1.189,0,0,0-.484.973,1.363,1.363,0,0,0,.717,1.15,11.992,11.992,0,0,0,2.8,1.091l2.391.861a9.726,9.726,0,0,1,2.013,1.051,4.444,4.444,0,0,1,1.615,1.844,6.183,6.183,0,0,1,.529,2.648,5.694,5.694,0,0,1-2.141,4.722,8.835,8.835,0,0,1-5.661,1.7" transform="translate(-819.027 -1402.743)" fill="#5a2d23"/>
    <path id="Path_1303" data-name="Path 1303" d="M1455.482,1446.112v5.074h-5.074v15.456h-5.25v-15.456h-5.074v-5.074Z" transform="translate(-1418.765 -1417.961)" fill="#5a2d23"/>
    <path id="Path_1304" data-name="Path 1304" d="M2559.043,1446.112v5.074h-5.074v15.456h-5.251v-15.456h-5.073v-5.074Z" transform="translate(-2491.328 -1417.961)" fill="#5a2d23"/>
    <rect id="Rectangle_62" data-name="Rectangle 62" width="5.25" height="20.531" transform="translate(69.692 28.151)" fill="#5a2d23"/>
    <path id="Path_1305" data-name="Path 1305" d="M3449.957,1448.77a10.981,10.981,0,0,1-15.281,0,10.834,10.834,0,0,1,0-15.222,10.98,10.98,0,0,1,15.281,0,10.834,10.834,0,0,1,0,15.222m-11.6-3.608a5.853,5.853,0,1,0-1.583-4,5.4,5.4,0,0,0,1.583,4" transform="translate(-3354.294 -1402.743)" fill="#5a2d23"/>
    <path id="Path_1306" data-name="Path 1306" d="M4268.7,1446.112h5.221v20.531h-4.049l-7.244-10.323v10.323h-5.249v-20.531h4.077l7.244,10.324Z" transform="translate(-4156.923 -1417.961)" fill="#5a2d23"/>
    <path id="Path_1307" data-name="Path 1307" d="M1901.963,1446.348l-6.609,20.741h5.741l.755-2.524.212-.711,6.406-1.525.788,2.388.788,2.372h5.46l-6.861-20.741Zm4.85,10.774-2.956.7,1.572-5.344Z" transform="translate(-1861.247 -1418.19)" fill="#5a2d23"/>
    <path id="Path_1308" data-name="Path 1308" d="M847.076,611.637,841.329,613v-8.092h-5.222v20.42h5.222V618.52l5.747-1.368v8.181h5.193v-20.42h-5.193Z" transform="translate(-831.753 -600.39)" fill="#5a2d23"/>
    <path id="Path_1309" data-name="Path 1309" d="M1538.727,621.835a9.7,9.7,0,0,1-11.707,0,6.56,6.56,0,0,1-2.274-5.223V602.823H1530v13.291q0,2.582,2.875,2.582t2.875-2.582V602.823H1541v13.789a6.562,6.562,0,0,1-2.273,5.223" transform="translate(-1501.05 -598.359)" fill="#5a2d23"/>
    <path id="Path_1310" data-name="Path 1310" d="M2226.49,602.823h5.222V623.36h-4.048l-7.247-10.327V623.36h-5.252V602.823h4.078l7.247,10.328Z" transform="translate(-2172.075 -598.359)" fill="#5a2d23"/>
    <path id="Path_1311" data-name="Path 1311" d="M2905.127,593.345l.338,2.055a9.849,9.849,0,0,1-1.6,7.683,10,10,0,0,1-6.8,3.959,10.738,10.738,0,0,1-8.3-1.755,10.3,10.3,0,0,1-4.288-6.995,10.422,10.422,0,0,1,1.8-8.027,10.312,10.312,0,0,1,7.022-4.308,10.905,10.905,0,0,1,5.406.418,9.854,9.854,0,0,1,4.249,2.779l-3.986,3.243a4.354,4.354,0,0,0-2.032-1.241,5.992,5.992,0,0,0-2.745-.143,5.347,5.347,0,0,0-3.679,2.212,5.537,5.537,0,0,0-.877,4.248,5.466,5.466,0,0,0,6.711,4.634q3.53-.582,4.222-3.431l-4.921.81-.734-4.458Z" transform="translate(-2822.422 -581.81)" fill="#5a2d23"/>
    <path id="Path_1312" data-name="Path 1312" d="M3713.224,618.431h7.951v4.929h-13.2V602.823h13.056v4.9h-7.8v2.846h7.071v4.841h-7.071Z" transform="translate(-3622.95 -598.359)" fill="#5a2d23"/>
    <path id="Path_1313" data-name="Path 1313" d="M4275.2,623.357l-3.578-6.631h-1.878v6.631h-5.252V602.819h8.215a7.373,7.373,0,0,1,5.266,2.01,6.7,6.7,0,0,1,2.128,5.09,6.394,6.394,0,0,1-.938,3.389,6.911,6.911,0,0,1-2.553,2.45l4.226,7.6Zm-5.456-15.7v4.606h2.9a2,2,0,0,0,1.583-.616,2.571,2.571,0,0,0,0-3.345,2.09,2.09,0,0,0-1.583-.646Z" transform="translate(-4163.833 -598.355)" fill="#5a2d23"/>
  </g>
</svg>
