<svg xmlns="http://www.w3.org/2000/svg" width="107.348" height="95.42" viewBox="0 0 107.348 95.42">
  <g id="hw2" transform="translate(-1355 285.007)">
    <g id="Group_342" data-name="Group 342" transform="translate(1355 -285.007)">
      <path id="Path_1412" data-name="Path 1412" d="M1366.927-201.514h83.493a11.928,11.928,0,0,0,11.927-11.928v-11.928a17.892,17.892,0,0,1-17.891-17.891,17.891,17.891,0,0,1,17.891-17.891v-11.928a11.927,11.927,0,0,0-11.927-11.928h-83.493A11.927,11.927,0,0,0,1355-273.079v59.638A11.928,11.928,0,0,0,1366.927-201.514Z" transform="translate(-1355 285.007)" fill="#9954e8"/>
      <path id="Path_1413" data-name="Path 1413" d="M1436.928-201.514a11.928,11.928,0,0,0,11.927-11.928v-11.928a17.892,17.892,0,0,1-17.891-17.891,17.891,17.891,0,0,1,17.891-17.891v-11.928a11.927,11.927,0,0,0-11.927-11.928H1425v83.493Z" transform="translate(-1341.507 285.007)" fill="#b078f0"/>
    </g>
    <g id="Group_343" data-name="Group 343" transform="translate(1372.891 -267.717)">
      <rect id="Rectangle_155" data-name="Rectangle 155" width="6.288" height="62.884" rx="2.636" transform="translate(44.566) rotate(45)" fill="#fff"/>
      <path id="Path_1414" data-name="Path 1414" d="M1377.86-269.42a7.861,7.861,0,0,0-7.86,7.861,7.86,7.86,0,0,0,7.86,7.86,7.86,7.86,0,0,0,7.86-7.86A7.861,7.861,0,0,0,1377.86-269.42Zm0,11.792a3.93,3.93,0,0,1-3.93-3.93,3.93,3.93,0,0,1,3.93-3.93,3.93,3.93,0,0,1,3.93,3.93A3.93,3.93,0,0,1,1377.86-257.628Z" transform="translate(-1370 270.722)" fill="#fff"/>
      <path id="Path_1415" data-name="Path 1415" d="M1404.68-243.776a7.86,7.86,0,0,0-7.86,7.86,7.861,7.861,0,0,0,7.86,7.861,7.861,7.861,0,0,0,7.86-7.861A7.861,7.861,0,0,0,1404.68-243.776Zm0,11.792a3.931,3.931,0,0,1-3.93-3.931,3.931,3.931,0,0,1,3.93-3.93,3.93,3.93,0,0,1,3.93,3.93A3.931,3.931,0,0,1,1404.68-231.984Z" transform="translate(-1364.83 275.665)" fill="#fff"/>
    </g>
    <g id="Group_345" data-name="Group 345" transform="translate(1419.232 -225.37)">
      <circle id="Ellipse_178" data-name="Ellipse 178" cx="17.891" cy="17.891" r="17.891" fill="#ffca60"/>
      <g id="Group_344" data-name="Group 344" transform="translate(11.927 5.964)">
        <path id="Path_1416" data-name="Path 1416" d="M1427.286-213.653a2.346,2.346,0,0,0-.55-1.636,4.955,4.955,0,0,0-1.867-1.122,21.586,21.586,0,0,1-2.272-1.022,7.269,7.269,0,0,1-1.638-1.167,4.709,4.709,0,0,1-1.063-1.548,5.373,5.373,0,0,1-.38-2.121,4.8,4.8,0,0,1,1.3-3.473,5.416,5.416,0,0,1,3.468-1.58v-2.684h1.934v2.721a5,5,0,0,1,3.347,1.85,6.249,6.249,0,0,1,1.208,3.983h-3.492a3.557,3.557,0,0,0-.6-2.251,1.945,1.945,0,0,0-1.6-.747,2,2,0,0,0-1.534.583,2.27,2.27,0,0,0-.544,1.611,2.165,2.165,0,0,0,.532,1.53,5.814,5.814,0,0,0,1.975,1.178,21.683,21.683,0,0,1,2.375,1.135,6.88,6.88,0,0,1,1.571,1.2,4.684,4.684,0,0,1,.979,1.53,5.446,5.446,0,0,1,.338,2,4.781,4.781,0,0,1-1.28,3.463,5.523,5.523,0,0,1-3.529,1.567v2.5h-1.921v-2.483a5.735,5.735,0,0,1-3.837-1.825,6.023,6.023,0,0,1-1.36-4.121h3.494a3.414,3.414,0,0,0,.682,2.289,2.441,2.441,0,0,0,1.963.8,2.346,2.346,0,0,0,1.681-.583A2.067,2.067,0,0,0,1427.286-213.653Z" transform="translate(-1418.851 230.007)" fill="#fff"/>
      </g>
    </g>
  </g>
</svg>
