<svg xmlns="http://www.w3.org/2000/svg" width="113" height="97" viewBox="0 0 113 97">
  <g id="hw3" transform="translate(-310 285)">
    <g id="Group_347" data-name="Group 347" transform="translate(310 -285)">
      <rect id="Rectangle_156" data-name="Rectangle 156" width="113" height="77" rx="10" fill="#9954e8"/>
      <path id="Rectangle_157" data-name="Rectangle 157" d="M0,0H113a0,0,0,0,1,0,0V4a10,10,0,0,1-10,10H10A10,10,0,0,1,0,4V0A0,0,0,0,1,0,0Z" transform="translate(0 63)" fill="#b078f0"/>
      <path id="Path_1417" data-name="Path 1417" d="M372.234-230H344.078A14.078,14.078,0,0,1,330-215.922h56.313A14.078,14.078,0,0,1,372.234-230Z" transform="translate(-301.844 306.43)" fill="#9954e8"/>
      <rect id="Rectangle_158" data-name="Rectangle 158" width="71" height="7" rx="2.5" transform="translate(21 90)" fill="#b078f0"/>
    </g>
    <g id="Group_348" data-name="Group 348" transform="translate(324.078 -277.961)">
      <path id="Rectangle_159" data-name="Rectangle 159" d="M5,0H80a5,5,0,0,1,5,5V56a0,0,0,0,1,0,0H0a0,0,0,0,1,0,0V5A5,5,0,0,1,5,0Z" transform="translate(-0.078 -0.039)" fill="#fff"/>
    </g>
    <path id="Path_1418" data-name="Path 1418" d="M375.964-257.959l-4.074-8.15a7.039,7.039,0,0,0-6.3-3.891h-1.406a1.413,1.413,0,0,0-1.384,1.2,7.042,7.042,0,0,1-6.938,5.841,7.042,7.042,0,0,1-6.938-5.841,1.413,1.413,0,0,0-1.384-1.2h-1.406a7.038,7.038,0,0,0-6.3,3.891l-4.074,8.15a1.407,1.407,0,0,0,1.259,2.037h4.761v18.3A2.815,2.815,0,0,0,344.6-234.8h22.525a2.815,2.815,0,0,0,2.816-2.816v-18.3H374.7A1.407,1.407,0,0,0,375.964-257.959Z" transform="translate(10.447 6.117)" fill="#ffca60"/>
    <path id="Rectangle_160" data-name="Rectangle 160" d="M0,0H2.428A3.572,3.572,0,0,1,6,3.572V30.428A3.572,3.572,0,0,1,2.428,34H0a0,0,0,0,1,0,0V0A0,0,0,0,1,0,0Z" transform="translate(383 -278) rotate(90)" fill="#f1f1f1"/>
  </g>
</svg>
