<svg xmlns="http://www.w3.org/2000/svg" width="125.692" height="125.692" viewBox="0 0 125.692 125.692">
  <g id="hw4" transform="translate(-159.142 -305)">
    <path id="Path_1431" data-name="Path 1431" d="M236.959,305a21.959,21.959,0,1,0,21.959,21.959A21.96,21.96,0,0,0,236.959,305Zm0,36.6a14.64,14.64,0,1,1,14.639-14.64A14.639,14.639,0,0,1,236.959,341.6Z" transform="translate(25.915)" fill="#ffae33"/>
    <g id="Group_360" data-name="Group 360" transform="translate(159.142 319.64)">
      <path id="Path_1432" data-name="Path 1432" d="M255.555,315H224.5a14.641,14.641,0,0,0-10.352,4.288L163.43,370.007a14.64,14.64,0,0,0,0,20.7l31.055,31.055a14.64,14.64,0,0,0,20.7,0l50.719-50.719a14.641,14.641,0,0,0,4.288-10.352V329.64A14.639,14.639,0,0,0,255.555,315Zm-7.32,29.279a7.32,7.32,0,1,1,7.32-7.32A7.321,7.321,0,0,1,248.235,344.279Z" transform="translate(-159.142 -315)" fill="#9954e8"/>
      <path id="Path_1433" data-name="Path 1433" d="M224.64,320a14.64,14.64,0,1,0,14.64,14.64A14.639,14.639,0,0,0,224.64,320Zm0,21.959a7.32,7.32,0,1,1,7.32-7.32A7.321,7.321,0,0,1,224.64,341.959Z" transform="translate(-135.547 -312.68)" fill="#b078f0"/>
      <g id="Group_359" data-name="Group 359" transform="translate(28.336 40.604)">
        <path id="Path_1434" data-name="Path 1434" d="M194.06,369.381a2.729,2.729,0,0,0-1.887-.867,6.245,6.245,0,0,0-2.679.719,18.68,18.68,0,0,1-2.657,1.042,5.544,5.544,0,0,1-5.825-1.426,5.4,5.4,0,0,1-1.72-3.628,5.659,5.659,0,0,1,1.341-3.831l-2.134-2.134,1.509-1.511,2.155,2.155a5.247,5.247,0,0,1,3.985-1.094,7.179,7.179,0,0,1,4.017,2.224l-2.284,2.284A4.5,4.5,0,0,0,185.4,361.9a2.426,2.426,0,0,0-2.159.739,2.7,2.7,0,0,0-.906,1.925,2.792,2.792,0,0,0,.95,1.969,2.636,2.636,0,0,0,1.871.861,6.849,6.849,0,0,0,2.688-.738,20.358,20.358,0,0,1,2.749-1.045,6.953,6.953,0,0,1,2.058-.265,5.056,5.056,0,0,1,1.887.435,6,6,0,0,1,1.793,1.282,5.283,5.283,0,0,1,1.707,3.661,5.975,5.975,0,0,1-1.508,3.938l1.91,1.911-1.5,1.5-1.9-1.9a6.009,6.009,0,0,1-4.264,1.483,6.544,6.544,0,0,1-4.121-2.11l2.294-2.294a3.939,3.939,0,0,0,2.509,1.312,3.03,3.03,0,0,0,2.37-1.019,3.218,3.218,0,0,0,1.1-2.177A2.673,2.673,0,0,0,194.06,369.381Z" transform="translate(-178.498 -335.772)" fill="#fff"/>
        <path id="Path_1435" data-name="Path 1435" d="M201.565,361.875a2.738,2.738,0,0,0-1.887-.867,6.26,6.26,0,0,0-2.678.72,18.7,18.7,0,0,1-2.659,1.042,5.548,5.548,0,0,1-5.825-1.426,5.409,5.409,0,0,1-1.72-3.628,5.658,5.658,0,0,1,1.342-3.831L186,351.75l1.509-1.509,2.156,2.155a5.236,5.236,0,0,1,3.983-1.094,7.18,7.18,0,0,1,4.017,2.222l-2.284,2.285a4.483,4.483,0,0,0-2.478-1.411,2.425,2.425,0,0,0-2.159.738,2.711,2.711,0,0,0-.906,1.925,2.793,2.793,0,0,0,.95,1.97,2.636,2.636,0,0,0,1.871.861,6.876,6.876,0,0,0,2.689-.738,19.841,19.841,0,0,1,2.749-1.045,6.892,6.892,0,0,1,2.057-.265,5.064,5.064,0,0,1,1.889.435,5.993,5.993,0,0,1,1.792,1.282,5.283,5.283,0,0,1,1.707,3.661,5.968,5.968,0,0,1-1.508,3.938l1.91,1.91-1.5,1.5-1.9-1.9a6.015,6.015,0,0,1-4.266,1.483,6.548,6.548,0,0,1-4.121-2.109l2.294-2.294a3.942,3.942,0,0,0,2.509,1.312,3.04,3.04,0,0,0,2.372-1.019,3.216,3.216,0,0,0,1.1-2.177A2.671,2.671,0,0,0,201.565,361.875Z" transform="translate(-175.016 -339.254)" fill="#fff"/>
        <path id="Path_1436" data-name="Path 1436" d="M209.07,354.37a2.738,2.738,0,0,0-1.886-.867,6.261,6.261,0,0,0-2.679.72,18.488,18.488,0,0,1-2.659,1.041,5.542,5.542,0,0,1-5.824-1.424,5.4,5.4,0,0,1-1.722-3.628,5.658,5.658,0,0,1,1.342-3.831l-2.136-2.136,1.511-1.509,2.155,2.155a5.239,5.239,0,0,1,3.983-1.1,7.183,7.183,0,0,1,4.017,2.224L202.89,348.3a4.481,4.481,0,0,0-2.478-1.413,2.43,2.43,0,0,0-2.159.739,2.711,2.711,0,0,0-.906,1.925,2.789,2.789,0,0,0,.95,1.969,2.633,2.633,0,0,0,1.872.862,6.9,6.9,0,0,0,2.688-.738,19.976,19.976,0,0,1,2.749-1.045,6.849,6.849,0,0,1,2.057-.265,5.064,5.064,0,0,1,1.888.435,5.968,5.968,0,0,1,1.792,1.282,5.291,5.291,0,0,1,1.708,3.661,5.98,5.98,0,0,1-1.509,3.938l1.91,1.91-1.5,1.5-1.9-1.9a6.013,6.013,0,0,1-4.266,1.483,6.548,6.548,0,0,1-4.12-2.11l2.293-2.294a3.94,3.94,0,0,0,2.511,1.31,3.038,3.038,0,0,0,2.37-1.017,3.216,3.216,0,0,0,1.1-2.177A2.671,2.671,0,0,0,209.07,354.37Z" transform="translate(-171.534 -342.736)" fill="#fff"/>
      </g>
    </g>
    <path id="Path_1437" data-name="Path 1437" d="M234.383,305a21.852,21.852,0,0,0-12.123,3.629,3.671,3.671,0,0,0-.578,5.655h0a3.7,3.7,0,0,0,4.676.411,14.64,14.64,0,1,1-.041,24.5,3.673,3.673,0,0,0-4.633.438h0a3.684,3.684,0,0,0,.634,5.693,21.962,21.962,0,0,0,33.975-19.4A22.143,22.143,0,0,0,234.383,305Z" transform="translate(28.518 0)" fill="#ffca60"/>
  </g>
</svg>
