<svg xmlns="http://www.w3.org/2000/svg" width="100.647" height="112.844" viewBox="0 0 100.647 112.844">
  <g id="hw6" transform="translate(-315 -311.517)">
    <path id="Path_1423" data-name="Path 1423" d="M365.372,424.344l-.121.017h0A58.543,58.543,0,0,1,315,366.408V346.436a14.377,14.377,0,0,1,7.245-12.483l35.945-20.541a14.374,14.374,0,0,1,14.266,0L408.4,333.953a14.377,14.377,0,0,1,7.245,12.483v19.953A58.543,58.543,0,0,1,365.372,424.344Z" transform="translate(0 0)" fill="#b078f0"/>
    <path id="Path_1424" data-name="Path 1424" d="M361.37,311.915a14.318,14.318,0,0,0-3.179,1.323l-35.945,20.541A14.377,14.377,0,0,0,315,346.262v19.973c0,.151.009.3.01.449a35.94,35.94,0,0,0,46.359-54.768Z" transform="translate(0 0.174)" fill="#ffca60"/>
    <path id="Path_1425" data-name="Path 1425" d="M360.98,403.473l-.086.012h0A41.816,41.816,0,0,1,325,362.09V345.341a5.992,5.992,0,0,1,3.018-5.2l29.955-17.117a5.99,5.99,0,0,1,5.944,0l29.955,17.117a5.992,5.992,0,0,1,3.018,5.2v16.735A41.818,41.818,0,0,1,360.98,403.473Z" transform="translate(4.378 4.691)" fill="#9954e8"/>
    <path id="Path_1426" data-name="Path 1426" d="M340,353.065l9.585,10.065L368.756,343" transform="translate(10.945 13.784)" fill="none" stroke="#fff" stroke-linecap="round" stroke-linejoin="round" stroke-width="5"/>
  </g>
</svg>
