<svg xmlns="http://www.w3.org/2000/svg" width="112" height="112" viewBox="0 0 112 112">
  <g id="hw7" transform="translate(440 -160)">
    <g id="Group_354" data-name="Group 354" transform="translate(-440 166.565)">
      <path id="Rectangle_180" data-name="Rectangle 180" d="M10,0H95a10,10,0,0,1,10,10V78a0,0,0,0,1,0,0H0a0,0,0,0,1,0,0V10A10,10,0,0,1,10,0Z" transform="translate(105 91.435) rotate(-180)" fill="#9954e8"/>
      <path id="Rectangle_181" data-name="Rectangle 181" d="M10,0h95a0,0,0,0,1,0,0V16A10,10,0,0,1,95,26H10A10,10,0,0,1,0,16V10A10,10,0,0,1,10,0Z" transform="translate(105 26.435) rotate(-180)" fill="#b078f0"/>
    </g>
    <g id="Group_355" data-name="Group 355" transform="translate(-367.781 232.219)">
      <circle id="Ellipse_179" data-name="Ellipse 179" cx="20" cy="20" r="20" transform="translate(-0.219 -0.219)" fill="#ffca60"/>
      <path id="Path_1427" data-name="Path 1427" d="M-375,231.107l4.642,4.642,9.285-9.285" transform="translate(388.131 -211.411)" fill="none" stroke="#fff" stroke-linecap="round" stroke-linejoin="round" stroke-width="2"/>
    </g>
    <path id="Path_1428" data-name="Path 1428" d="M-369.346,192.827-402.173,160-435,192.827Z" transform="translate(1.565)" fill="#f3f3f3"/>
    <g id="Group_356" data-name="Group 356" transform="translate(-420.304 160)">
      <path id="Path_1429" data-name="Path 1429" d="M-359.346,192.827-392.173,160-425,192.827Z" transform="translate(425 -160)" fill="#ffca60"/>
      <path id="Path_1430" data-name="Path 1430" d="M-399.947,173.536a6.55,6.55,0,0,0,4.643,1.922,6.55,6.55,0,0,0,4.643-1.922l15.053,15.053H-415Z" transform="translate(428.131 -155.762)" fill="#fff"/>
    </g>
    <g id="Group_357" data-name="Group 357" transform="translate(-440 205.958)">
      <path id="Rectangle_182" data-name="Rectangle 182" d="M10,0H53a0,0,0,0,1,0,0V26a0,0,0,0,1,0,0H10A10,10,0,0,1,0,16V10A10,10,0,0,1,10,0Z" transform="translate(53 26.042) rotate(-180)" fill="#b078f0"/>
      <circle id="Ellipse_180" data-name="Ellipse 180" cx="6.5" cy="6.5" r="6.5" transform="translate(33 7.042)" fill="#ffca60"/>
    </g>
  </g>
</svg>
