<svg id="icon_portfolio" xmlns="http://www.w3.org/2000/svg" xmlns:xlink="http://www.w3.org/1999/xlink" width="52" height="50" viewBox="0 0 52 50">
  <defs>
    <linearGradient id="linear-gradient" x1="0.5" x2="0.5" y2="1" gradientUnits="objectBoundingBox">
      <stop offset="0" stop-color="#fff" stop-opacity="0.6"/>
      <stop offset="1" stop-color="#fff" stop-opacity="0.102"/>
    </linearGradient>
  </defs>
  <path id="Path" d="M0,16V0L23.647,7.276a8,8,0,0,0,4.705,0L52,0V16a8,8,0,0,1-8,8H8A8,8,0,0,1,0,16Z" transform="translate(0 26)" fill="#4971fe"/>
  <path id="Shape" d="M26,29.63a7.992,7.992,0,0,1-2.353-.354L0,22V18a8.009,8.009,0,0,1,8-8h6.141A12.468,12.468,0,0,1,16.4,4.3C18.51,1.487,21.829,0,26,0s7.49,1.487,9.6,4.3A12.274,12.274,0,0,1,37.859,10H44a8.009,8.009,0,0,1,8,8v4L28.353,29.276A7.993,7.993,0,0,1,26,29.63ZM26,20a3,3,0,1,0,3,3A3,3,0,0,0,26,20ZM26,4c-2.9,0-5.056.908-6.4,2.7A8.144,8.144,0,0,0,18.2,10H33.8a8.16,8.16,0,0,0-1.4-3.3C31.055,4.908,28.9,4,26,4Z" fill="#12d2c7"/>
  <path id="Path-2" data-name="Path" d="M44,6V22a6,6,0,0,1-6,6H6a6,6,0,0,1-6-6V6A6,6,0,0,1,6,0H38A6,6,0,0,1,44,6Z" transform="translate(4 14)" fill="url(#linear-gradient)"/>
</svg>
