<svg xmlns="http://www.w3.org/2000/svg" xmlns:xlink="http://www.w3.org/1999/xlink" width="747.488" height="697.409" viewBox="0 0 747.488 697.409">
  <defs>
    <linearGradient id="linear-gradient" x1="1.153" y1="0.741" x2="-0.205" y2="0.338" gradientUnits="objectBoundingBox">
      <stop offset="0" stop-color="#c7f5f7"/>
      <stop offset="1" stop-color="#fff"/>
    </linearGradient>
    <clipPath id="clip-path">
      <path id="Path_563" data-name="Path 563" d="M194.462,122.876,874.18,147.8a27.944,27.944,0,0,1,26.845,30.069L871.247,568.737a27.952,27.952,0,0,1-27.339,25.829l-620.756,11.8a27.954,27.954,0,0,1-28.428-26.047l-29.183-427.6A27.957,27.957,0,0,1,194.462,122.876Z" transform="translate(-165.474 -122.857)"/>
    </clipPath>
    <clipPath id="clip-path-2">
      <path id="Path_725" data-name="Path 725" d="M490.18,133.88V298.336a4.341,4.341,0,0,0,4.181,4.341l229.646,8.377a4.344,4.344,0,0,0,4.5-4.341v-182.4a4.351,4.351,0,0,0-4.53-4.341l-229.645,9.568A4.356,4.356,0,0,0,490.18,133.88Z" transform="translate(-490.18 -119.967)"/>
    </clipPath>
  </defs>
  <g id="influencer" transform="translate(-1066 -2220.998)">
    <g id="_04._Gym_Trainer_Instructor_from_Home" data-name="04. Gym Trainer &amp; Instructor from Home" transform="translate(908.69 2185.432)">
      <g id="Group_147" data-name="Group 147" transform="translate(169.163 138.827)">
        <path id="Path_561" data-name="Path 561" d="M194.462,122.876,874.18,147.8a27.944,27.944,0,0,1,26.845,30.069L871.247,568.737a27.952,27.952,0,0,1-27.339,25.829l-620.756,11.8a27.954,27.954,0,0,1-28.428-26.047l-29.183-427.6A27.957,27.957,0,0,1,194.462,122.876Z" transform="translate(-165.474 -122.857)" fill="url(#linear-gradient)"/>
        <g id="Group_146" data-name="Group 146" clip-path="url(#clip-path)">
          <g id="Group_142" data-name="Group 142" transform="translate(423.191 -105.504)">
            <path id="Path_562" data-name="Path 562" d="M456.95,64.114l4.181,307.06H624.368V50.19Z" transform="translate(-456.95 -50.19)" fill="none" stroke="#9dbcfe" stroke-miterlimit="10" stroke-width="0.75"/>
            <line id="Line_98" data-name="Line 98" y2="320.984" transform="translate(83.716)" fill="none" stroke="#9dbcfe" stroke-miterlimit="10" stroke-width="0.75"/>
            <line id="Line_99" data-name="Line 99" y1="4.544" x2="165.356" transform="translate(2.062 160.492)" fill="none" stroke="#9dbcfe" stroke-miterlimit="10" stroke-width="0.75"/>
          </g>
          <line id="Line_100" data-name="Line 100" y1="21.488" x2="718.947" transform="translate(8.386 363.428)" fill="none" stroke="#9dbcfe" stroke-miterlimit="10" stroke-width="0.75"/>
          <g id="Group_145" data-name="Group 145" transform="translate(-24.398 -50.477)">
            <g id="Group_143" data-name="Group 143" transform="translate(58.134 123.541)">
              <rect id="Rectangle_34" data-name="Rectangle 34" width="85.749" height="110.257" fill="none" stroke="#9dbcfe" stroke-miterlimit="10" stroke-width="0.75"/>
              <rect id="Rectangle_35" data-name="Rectangle 35" width="99.425" height="74.918" transform="translate(80.341 5.407) rotate(90)" fill="none" stroke="#9dbcfe" stroke-miterlimit="10" stroke-width="0.75"/>
            </g>
            <g id="Group_144" data-name="Group 144">
              <rect id="Rectangle_36" data-name="Rectangle 36" width="85.749" height="110.257" fill="none" stroke="#9dbcfe" stroke-miterlimit="10" stroke-width="0.75"/>
              <rect id="Rectangle_37" data-name="Rectangle 37" width="99.425" height="74.918" transform="translate(80.325 5.416) rotate(90)" fill="none" stroke="#9dbcfe" stroke-miterlimit="10" stroke-width="0.75"/>
            </g>
          </g>
        </g>
      </g>
      <g id="Group_151" data-name="Group 151" transform="translate(564.38 361.41)">
        <path id="Path_564" data-name="Path 564" d="M520.93,351.95l7.448,224.767a2.948,2.948,0,0,0,2.947,2.846h0a2.949,2.949,0,0,0,2.947-2.947V351.95Z" transform="translate(-400.063 -241.914)" fill="#8eeef2"/>
        <path id="Path_565" data-name="Path 565" d="M692.515,351.934c0,13.938-56.987,25.219-127.287,25.219s-127.287-11.3-127.287-25.219c0-1-.581-9.452,0-10.439,7.434-12.53,62.068-14.795,127.287-14.795,65.437,0,120.144,2.207,127.287,14.795C693.052,342.439,692.515,350.976,692.515,351.934Z" transform="translate(-437.682 -253.325)" fill="#8eeef2"/>
        <ellipse id="Ellipse_35" data-name="Ellipse 35" cx="127.287" cy="25.219" rx="127.287" ry="25.219" transform="translate(0.258 62.965)" fill="#fff"/>
        <g id="Group_148" data-name="Group 148" transform="translate(12.418 110.021)">
          <path id="Path_566" data-name="Path 566" d="M465.189,351.955,446.242,610.972a2.335,2.335,0,0,0,2.337,2.512h0a2.358,2.358,0,0,0,2.338-2.105L477.385,351.94h-12.2Z" transform="translate(-446.235 -351.94)" fill="#8eeef2"/>
          <path id="Path_567" data-name="Path 567" d="M595.556,351.955,614.5,610.972a2.335,2.335,0,0,1-2.338,2.512h0a2.358,2.358,0,0,1-2.338-2.105L583.36,351.94h12.2Z" transform="translate(-384.27 -351.94)" fill="#8eeef2"/>
        </g>
        <line id="Line_101" data-name="Line 101" y1="186.989" x2="197.022" transform="translate(20.701 123.843)" fill="none" stroke="#9dbcfe" stroke-miterlimit="10" stroke-width="0.75"/>
        <line id="Line_102" data-name="Line 102" x1="197.022" y1="186.989" transform="translate(35.699 123.843)" fill="none" stroke="#9dbcfe" stroke-miterlimit="10" stroke-width="0.75"/>
        <path id="Path_568" data-name="Path 568" d="M518.34,351.384l-68.5-15.114,70.9,10.221Z" transform="translate(-432.188 -249)" fill="#03d2da"/>
        <path id="Path_569" data-name="Path 569" d="M449.84,340.563l88.725-13.793-17.829,24.014Z" transform="translate(-432.188 -253.293)" fill="#ebf2ff"/>
        <g id="Group_150" data-name="Group 150" transform="translate(28.205 30.298)">
          <path id="Path_570" data-name="Path 570" d="M483.245,321.331l-1.379,35.121a3.673,3.673,0,0,1-2.25,3.267c-3.76,1.51-9.437,1.35-9.437,1.35s-5.677.174-9.423-1.35a3.649,3.649,0,0,1-2.25-3.267l-1.379-35.121a20.626,20.626,0,0,1,2.9-11.339c1.307-2.192,2.555-4.588,2.759-5.982h14.795c.2,1.394,1.452,3.789,2.759,5.982A20.625,20.625,0,0,1,483.245,321.331Z" transform="translate(-457.109 -293.876)" fill="#8eeef2"/>
          <g id="Group_149" data-name="Group 149" transform="translate(3.951)">
            <path id="Path_571" data-name="Path 571" d="M478.095,298.08V305.8c0,.842-4.08,1.524-9.132,1.524s-9.132-.7-9.132-1.524V298.08Z" transform="translate(-459.83 -296.556)" fill="#8b41d2"/>
            <path id="Path_572" data-name="Path 572" d="M478.095,298.554c0,.842-4.094,1.524-9.132,1.524s-9.132-.682-9.132-1.524,4.094-1.524,9.132-1.524S478.095,297.712,478.095,298.554Z" transform="translate(-459.83 -297.03)" fill="#ac64f2"/>
          </g>
        </g>
        <path id="Path_573" data-name="Path 573" d="M494.132,373.6,511.511,297.5a7.858,7.858,0,0,1,6.621-6.04l114.7-15.274A2.853,2.853,0,0,1,636,279.644l-15.869,71.2a2.847,2.847,0,0,1-2.236,2.178l-120.42,24A2.854,2.854,0,0,1,494.132,373.6Z" transform="translate(-412.205 -276.162)" fill="#fff"/>
        <path id="Path_574" data-name="Path 574" d="M496.363,374.6,513.742,298.5a7.858,7.858,0,0,1,6.621-6.04l114.7-15.274a2.852,2.852,0,0,1,3.165,3.455l-15.869,71.2a2.847,2.847,0,0,1-2.236,2.178l-120.42,24A2.84,2.84,0,0,1,496.363,374.6Z" transform="translate(-411.199 -275.71)" fill="#03d2da"/>
        <path id="Path_575" data-name="Path 575" d="M562.892,313.957c-.74,5.88-5.778,10.947-11.238,11.325s-9.307-4.08-8.566-9.96,5.779-10.947,11.238-11.325S563.633,308.077,562.892,313.957Z" transform="translate(-390.092 -263.594)" fill="#8eeef2"/>
      </g>
      <g id="Group_154" data-name="Group 154" transform="translate(507.009 116.664)">
        <circle id="Ellipse_36" data-name="Ellipse 36" cx="31.099" cy="31.099" r="31.099" transform="translate(0 43.981) rotate(-45)" fill="#ff9fd3"/>
        <g id="Group_153" data-name="Group 153" transform="translate(28.126 35.584)">
          <g id="Group_152" data-name="Group 152">
            <rect id="Rectangle_38" data-name="Rectangle 38" width="21.88" height="16.769" fill="none" stroke="#fff" stroke-miterlimit="10" stroke-width="0.75"/>
            <path id="Path_576" data-name="Path 576" d="M442.435,146.3l-9.815-3.412v-6.025l9.815-3.412Z" transform="translate(-410.725 -131.49)" fill="none" stroke="#fff" stroke-miterlimit="10" stroke-width="0.75"/>
          </g>
        </g>
      </g>
      <g id="Group_155" data-name="Group 155" transform="translate(157.31 354.888)">
        <path id="Path_577" data-name="Path 577" d="M217.22,475.38c.842,2.163,1.365,3.354,1.365,3.354,0,2.6,11.281,4.69,25.219,4.69s25.219-2.091,25.219-4.69c1.176-2.672,2.221-5.416,3.18-8.174C255.2,478.4,236.066,478.589,217.22,475.38Z" transform="translate(-130.237 -181.793)" fill="#b1e3f1"/>
        <path id="Path_578" data-name="Path 578" d="M275.594,487.509c8.987-26,8.987-54.489,8.987-54.489h-74.8a170.7,170.7,0,0,0,10.8,59.31C239.428,495.553,258.564,495.364,275.594,487.509Z" transform="translate(-133.599 -198.757)" fill="#ebf2ff"/>
        <path id="Path_579" data-name="Path 579" d="M284.581,435.195c0,3.847-16.74,6.955-37.4,6.955s-37.4-3.122-37.4-6.955,16.74-6.955,37.4-6.955S284.581,431.347,284.581,435.195Z" transform="translate(-133.599 -200.917)" fill="#b1e3f1"/>
        <path id="Path_580" data-name="Path 580" d="M263.056,483.481s-15.55-123.265-89.6-154.031" transform="translate(-150.012 -245.56)" fill="none" stroke="#9dbcfe" stroke-miterlimit="10" stroke-width="0.75"/>
        <path id="Path_581" data-name="Path 581" d="M250.293,422.624s-17.19-24.8-60.123-16.087" transform="translate(-142.461 -211.563)" fill="none" stroke="#9dbcfe" stroke-miterlimit="10" stroke-width="0.75"/>
        <path id="Path_582" data-name="Path 582" d="M241.176,502.162s11.194-115.12-19.3-214.052" transform="translate(-128.131 -264.241)" fill="none" stroke="#9dbcfe" stroke-miterlimit="10" stroke-width="0.75"/>
        <path id="Path_583" data-name="Path 583" d="M236.55,419.733s5.532-66.468,43.949-113.073" transform="translate(-121.502 -255.858)" fill="none" stroke="#9dbcfe" stroke-miterlimit="10" stroke-width="0.75"/>
        <path id="Path_584" data-name="Path 584" d="M236.28,430.676a93.7,93.7,0,0,1,35.455-32.566" transform="translate(-121.624 -214.533)" fill="none" stroke="#9dbcfe" stroke-miterlimit="10" stroke-width="0.75"/>
        <path id="Path_585" data-name="Path 585" d="M233.106,398.5s-9.321-12.138-24.726-7.23C208.38,391.274,218.63,405.517,233.106,398.5Z" transform="translate(-134.232 -218.15)" fill="#14c664"/>
        <path id="Path_586" data-name="Path 586" d="M228.893,409.206s-15.187-1.9-22.533,12.5C206.36,421.707,223.7,424.422,228.893,409.206Z" transform="translate(-135.145 -209.556)" fill="#12ad66"/>
        <path id="Path_587" data-name="Path 587" d="M245.52,417.956s11.121-10.512,4.69-25.336C250.21,392.62,237.085,404.264,245.52,417.956Z" transform="translate(-118.726 -217.014)" fill="#14c664"/>
        <path id="Path_588" data-name="Path 588" d="M244.64,412.385S258.535,418.8,269.9,407.3C269.9,407.3,254.208,399.463,244.64,412.385Z" transform="translate(-117.846 -211.443)" fill="#14c664"/>
        <path id="Path_589" data-name="Path 589" d="M258.12,403.248s15.143,2.236,22.795-12.007C280.915,391.241,263.652,388.149,258.12,403.248Z" transform="translate(-111.755 -217.755)" fill="#12ad66"/>
        <path id="Path_590" data-name="Path 590" d="M214.086,410.076S210.3,395.253,194.21,393.67C194.21,393.67,198.028,410.8,214.086,410.076Z" transform="translate(-140.635 -216.539)" fill="#14c664"/>
        <path id="Path_591" data-name="Path 591" d="M197.834,406.265s-14.461-4.995-24.624,7.564C173.2,413.844,189.6,420.087,197.834,406.265Z" transform="translate(-150.125 -211.291)" fill="#14c664"/>
        <path id="Path_592" data-name="Path 592" d="M215.035,405.017s-15.114-2.381-22.925,11.76C192.11,416.777,209.344,420.059,215.035,405.017Z" transform="translate(-141.584 -211.48)" fill="#14c664"/>
        <path id="Path_593" data-name="Path 593" d="M224.312,374.612s-12.777-8.435-25.742,1.22C198.57,375.832,212.9,385.951,224.312,374.612Z" transform="translate(-138.665 -226.693)" fill="#12ad66"/>
        <path id="Path_594" data-name="Path 594" d="M216.555,380.771s13.5-7.2,11.209-23.2C227.764,357.585,212.025,365.352,216.555,380.771Z" transform="translate(-130.908 -232.853)" fill="#14c664"/>
        <path id="Path_595" data-name="Path 595" d="M231.755,337.041s13.5-7.2,11.209-23.2C242.964,313.84,227.225,321.622,231.755,337.041Z" transform="translate(-124.039 -252.614)" fill="#14c664"/>
        <path id="Path_596" data-name="Path 596" d="M226.475,311.1s13.5-7.2,11.209-23.2C237.684,287.915,221.945,295.682,226.475,311.1Z" transform="translate(-126.425 -264.336)" fill="#14c664"/>
        <path id="Path_597" data-name="Path 597" d="M225.138,295.539s3.7-14.853-9.713-23.869C215.425,271.67,210.648,288.555,225.138,295.539Z" transform="translate(-131.389 -271.67)" fill="#14c664"/>
        <path id="Path_598" data-name="Path 598" d="M232.974,307.664s-6.083-14.04-22.214-13.038C210.746,294.611,217.235,310.931,232.974,307.664Z" transform="translate(-133.156 -261.32)" fill="#14c664"/>
        <path id="Path_599" data-name="Path 599" d="M238.852,333.152s-7.724-13.212-23.622-10.279C215.23,322.872,223.607,338.277,238.852,333.152Z" transform="translate(-131.137 -248.724)" fill="#12ad66"/>
        <path id="Path_600" data-name="Path 600" d="M239.2,368.512s13.72,6.795,25.394-4.4C264.579,364.127,249.1,355.852,239.2,368.512Z" transform="translate(-120.305 -231.091)" fill="#12ad66"/>
        <path id="Path_601" data-name="Path 601" d="M246.64,344.392s13.72,6.795,25.394-4.4C272.034,340.007,256.556,331.732,246.64,344.392Z" transform="translate(-116.943 -241.99)" fill="#14c664"/>
        <path id="Path_602" data-name="Path 602" d="M248.636,349.885s7.869-13.125-2.338-25.655C246.313,324.215,236.818,338.981,248.636,349.885Z" transform="translate(-118.721 -247.919)" fill="#14c664"/>
        <path id="Path_603" data-name="Path 603" d="M258,321.113s13.72,6.795,25.393-4.4C283.394,316.714,267.916,308.453,258,321.113Z" transform="translate(-111.809 -252.512)" fill="#14c664"/>
        <path id="Path_604" data-name="Path 604" d="M260,326.595s7.869-13.125-2.338-25.655C257.66,300.94,248.179,315.706,260,326.595Z" transform="translate(-113.589 -258.443)" fill="#12ad66"/>
        <path id="Path_605" data-name="Path 605" d="M241.574,374.16s6.243-13.982-5.386-25.19C236.173,348.97,228.522,364.752,241.574,374.16Z" transform="translate(-122.679 -236.739)" fill="#14c664"/>
        <path id="Path_606" data-name="Path 606" d="M203.058,358.957s10.4-11.238,2.976-25.6C206.035,333.36,193.723,345.861,203.058,358.957Z" transform="translate(-138.217 -243.793)" fill="#14c664"/>
        <path id="Path_607" data-name="Path 607" d="M186.874,343.08s6.664-13.778-4.632-25.35C182.243,317.73,174.126,333.294,186.874,343.08Z" transform="translate(-147.194 -250.856)" fill="#14c664"/>
        <path id="Path_608" data-name="Path 608" d="M180.744,332.878s-7.492-13.343-23.434-10.7C157.31,322.178,165.426,337.742,180.744,332.878Z" transform="translate(-157.31 -249.002)" fill="#14c664"/>
        <path id="Path_609" data-name="Path 609" d="M192.173,335.394s-14.708-4.24-24.2,8.827C167.97,344.222,184.667,349.608,192.173,335.394Z" transform="translate(-152.493 -243.17)" fill="#14c664"/>
        <path id="Path_610" data-name="Path 610" d="M209.756,353.372s-9.844-11.717-25.016-6.156C184.74,347.216,195.6,360.994,209.756,353.372Z" transform="translate(-144.915 -238.208)" fill="#12ad66"/>
        <path id="Path_611" data-name="Path 611" d="M240.6,355.468S235.39,341.08,219.23,341.08C219.23,341.08,224.689,357.748,240.6,355.468Z" transform="translate(-129.329 -240.304)" fill="#14c664"/>
        <path id="Path_612" data-name="Path 612" d="M266.56,311.93s15.3-.479,20.326-15.84C286.886,296.09,269.333,296.09,266.56,311.93Z" transform="translate(-107.941 -260.635)" fill="#14c664"/>
      </g>
      <g id="Group_158" data-name="Group 158" transform="translate(179.582 611.582)">
        <g id="Group_156" data-name="Group 156">
          <path id="Path_613" data-name="Path 613" d="M197.564,448.47v77.008H186.138c-7.448,0-13.488-17.234-13.488-38.5,0-21.241,6.04-38.5,13.488-38.5h11.426Z" transform="translate(-172.65 -448.47)" fill="#9dbcfe"/>
          <ellipse id="Ellipse_37" data-name="Ellipse 37" cx="13.488" cy="38.504" rx="13.488" ry="38.504" transform="translate(11.426)" fill="#82a1d8"/>
        </g>
        <path id="Path_614" data-name="Path 614" d="M192.152,471.09H309.363v11.325H192.152a5.67,5.67,0,0,1-5.662-5.662h0A5.67,5.67,0,0,1,192.152,471.09Z" transform="translate(-166.396 -438.248)" fill="#1f296f"/>
        <g id="Group_157" data-name="Group 157" transform="translate(118.227)">
          <path id="Path_615" data-name="Path 615" d="M278.994,448.47v77.008H267.568c-7.448,0-13.488-17.234-13.488-38.5,0-21.241,6.04-38.5,13.488-38.5h11.426Z" transform="translate(-254.08 -448.47)" fill="#9dbcfe"/>
          <ellipse id="Ellipse_38" data-name="Ellipse 38" cx="13.488" cy="38.504" rx="13.488" ry="38.504" transform="translate(11.426)" fill="#82a1d8"/>
          <path id="Path_616" data-name="Path 616" d="M276.283,477.231c0,3.978-1.132,7.2-2.526,7.2s-2.526-3.223-2.526-7.2,1.132-7.2,2.526-7.2S276.283,473.253,276.283,477.231Z" transform="translate(-246.33 -438.727)" fill="#698ec4"/>
        </g>
      </g>
      <g id="Group_163" data-name="Group 163" transform="translate(285.971 87.515)">
        <path id="Path_617" data-name="Path 617" d="M349.571,461.968s2.759,22.054,4.457,31.477a10.905,10.905,0,0,1-1.8,8.16,30.466,30.466,0,0,1-7.535,7.55l-3.76,8.363a9.745,9.745,0,0,1-8.392,5.735c-10.7.523-32.188,1.365-33.655-.319-1.975-2.25-.842-5.909,5.343-9.844s19.673-24.45,20.806-28.109,1.379-24.74,1.379-24.74S349.629,460.864,349.571,461.968Z" transform="translate(-222.394 80.916)" fill="#1f296f"/>
        <path id="Path_618" data-name="Path 618" d="M433.629,470.961s3.47,17.64,3.47,20.82-1.452,12.138-1.728,15.608a102.947,102.947,0,0,0,.726,11.731,6.467,6.467,0,0,1-6.141,7.1c-11.194.508-32.363,1.307-34.482.247-2.889-1.452,8.624-21.2,11.8-31.608s1.5-34.308,1.5-34.308,20.922-5.256,22.9-2.192Z" transform="translate(-178.555 79.632)" fill="#1f296f"/>
        <path id="Path_619" data-name="Path 619" d="M408.822,345.97,446.136,516a12.478,12.478,0,0,1-8.494,14.591h0a12.466,12.466,0,0,1-15.506-7.927L364.22,351.444Z" transform="translate(-192.47 29.279)" fill="#ff6089"/>
        <path id="Path_620" data-name="Path 620" d="M308.69,355.261,321.83,526.8a11.752,11.752,0,0,0,11.717,10.86h0a11.772,11.772,0,0,0,11.746-11.209l9.089-194.844Z" transform="translate(-217.563 22.789)" fill="#ff6089"/>
        <path id="Path_621" data-name="Path 621" d="M318.92,486.811s-3.833-15.521-2.817-18.337,20.559-2.613,21.169,0-1.612,17.539-2.613,18.337C333.628,487.624,325.41,483.428,318.92,486.811Z" transform="translate(-214.291 83.716)" fill="#fff"/>
        <path id="Path_622" data-name="Path 622" d="M409.689,486.509s-8.058-15.593-7.521-16.929,22.345-6.737,24.726-5.372,0,22.3,0,22.3A43.291,43.291,0,0,0,409.689,486.509Z" transform="translate(-175.333 82.61)" fill="#fff"/>
        <path id="Path_623" data-name="Path 623" d="M367.29,363.408l3.252,9.641c5.14-2.279,31.767-6.562,43.107,0L408.408,348.7Z" transform="translate(-191.083 30.512)" fill="#1f296f"/>
        <path id="Path_624" data-name="Path 624" d="M309.766,361.948s25.481,1.873,41.7,19.034l1.016-21.851L309.04,352.54Z" transform="translate(-217.405 32.247)" fill="#1f296f"/>
        <g id="Group_159" data-name="Group 159" transform="translate(0 59.798)">
          <path id="Path_625" data-name="Path 625" d="M261.714,138.29l7.332,35.789-10.25,2.105c-4.661.958-10.076-6.287-12.109-16.174s.116-18.671,4.777-19.63Z" transform="translate(-245.926 -124.368)" fill="#9dbcfe"/>
          <path id="Path_626" data-name="Path 626" d="M270.618,154.49c2.018,9.887-.116,18.671-4.777,19.63s-10.076-6.287-12.094-16.174.116-18.671,4.777-19.63S268.6,144.6,270.618,154.49Z" transform="translate(-242.736 -124.394)" fill="#82a1d8"/>
          <path id="Path_627" data-name="Path 627" d="M329.291,149.471l-67.629,13.866c-1.67.334-3.6-2.25-4.327-5.793s.044-6.664,1.7-7.013l67.644-13.851Z" transform="translate(-240.894 -125.096)" fill="#1f296f"/>
          <path id="Path_628" data-name="Path 628" d="M308.294,128.75l7.332,35.789-10.25,2.105c-4.661.958-10.076-6.287-12.109-16.174s.116-18.671,4.777-19.63Z" transform="translate(-224.877 -128.679)" fill="#9dbcfe"/>
          <path id="Path_629" data-name="Path 629" d="M317.208,144.961c2.018,9.887-.116,18.671-4.777,19.63s-10.076-6.287-12.094-16.174.116-18.671,4.777-19.63S315.19,135.073,317.208,144.961Z" transform="translate(-221.682 -128.701)" fill="#82a1d8"/>
          <path id="Path_630" data-name="Path 630" d="M309.941,142.468c.726,3.528-.044,6.664-1.7,7.013s-3.6-2.25-4.327-5.779.044-6.664,1.7-7.013S309.229,138.94,309.941,142.468Z" transform="translate(-219.845 -125.106)" fill="#698ec4"/>
        </g>
        <path id="Path_631" data-name="Path 631" d="M290.764,200.03,285,212.734l23.855,25.728,10.091-23.913C312.629,205.3,301.929,201.032,290.764,200.03Z" transform="translate(-228.269 -36.67)" fill="#ff6089"/>
        <path id="Path_632" data-name="Path 632" d="M329.7,161.7h0a15.081,15.081,0,0,0-19.034,8.261l-21.706,47.8c11.165,1.016,21.865,5.27,28.167,14.5l21.4-50.758A15.071,15.071,0,0,0,329.7,161.7Z" transform="translate(-226.479 -54.402)" fill="#8e57ce"/>
        <path id="Path_633" data-name="Path 633" d="M315.965,272.41s-14.751,111.8-13.822,120.928c0,0,29.56,19.354,61.734,9.67,0,0,22.475-77.037,25.727-83.556s31.942-52.428,8.174-61.023S322.949,263.263,315.965,272.41Z" transform="translate(-220.541 -11.526)" fill="#1e7bf5"/>
        <path id="Path_634" data-name="Path 634" d="M336.45,278.53s1.22,24.218,11.905,41.669c0,0,13.633,69.633,23.434,86.271,0,0,36.4,1.06,56.435-15.071,0,0-5.691-44.4-9.539-68.253s-3.165-41.771-8.915-62.155S338.584,270.646,336.45,278.53Z" transform="translate(-205.019 -12.275)" fill="#1e7bf5"/>
        <path id="Path_635" data-name="Path 635" d="M336.45,270.9s1.22,24.218,11.905,41.669c0,0,13.633,69.633,23.434,86.271" transform="translate(-205.019 -4.645)" fill="none" stroke="#1f296f" stroke-linecap="round" stroke-linejoin="round" stroke-miterlimit="10" stroke-width="0.75"/>
        <path id="Path_636" data-name="Path 636" d="M321.732,160.28c20.181-2.846,49.466-5.924,74.816-4.544a26.633,26.633,0,0,1,24.9,30.678c-3.441,22.2-8.131,53.488-10.367,73.248,0,0,14.519,41.931,14.519,48.377,0,0-35.47,24.188-65.567,23.651s-44.079-13.982-44.079-13.982,6.984-34.932,5.372-46.765c-1.089-8-11.775-53.967-18.584-82.874A22.787,22.787,0,0,1,321.732,160.28Z" transform="translate(-220.53 -56.84)" fill="#b078f0"/>
        <path id="Path_637" data-name="Path 637" d="M391.712,166.18,427.733,223.2A26.931,26.931,0,0,1,431,244.509l-26.018,98.264-18.773-4.109L403.37,242.8l-41.582-56.159a18.136,18.136,0,0,1,3.456-25.118h0A18.184,18.184,0,0,1,391.712,166.18Z" transform="translate(-195.178 -55.785)" fill="#ff6089"/>
        <path id="Path_638" data-name="Path 638" d="M421.748,213.73l-30.04-47.549a18.145,18.145,0,0,0-26.453-4.646h0a18.124,18.124,0,0,0-3.455,25.118l34.526,46.62C408.217,236.292,420.151,226.115,421.748,213.73Z" transform="translate(-195.175 -55.786)" fill="#8e57ce"/>
        <path id="Path_639" data-name="Path 639" d="M378.657,278.193l-1.147,6.432,18.773,4.109,1.815-6.882C393.452,276.886,385.916,276.712,378.657,278.193Z" transform="translate(-186.464 -1.717)" fill="#8aebff"/>
        <g id="Group_160" data-name="Group 160" transform="translate(145.159 282.414)">
          <path id="Path_640" data-name="Path 640" d="M364.656,282.88l.653,36.53-10.454.189c-4.748.087-8.755-8.014-8.944-18.105s3.528-18.337,8.276-18.424Z" transform="translate(-345.905 -281.645)" fill="#9dbcfe"/>
          <path id="Path_641" data-name="Path 641" d="M370.342,301c.189,10.091-3.528,18.337-8.276,18.424s-8.755-8.029-8.944-18.105,3.528-18.337,8.276-18.424S370.153,290.9,370.342,301Z" transform="translate(-342.647 -281.641)" fill="#82a1d8"/>
          <path id="Path_642" data-name="Path 642" d="M429.148,303.158l-69.023,1.263c-1.7.029-3.136-2.875-3.194-6.475s1.263-6.548,2.947-6.577l69.037-1.249Z" transform="translate(-340.924 -278.373)" fill="#1f296f"/>
          <path id="Path_643" data-name="Path 643" d="M412.206,282.03l.653,36.53-10.454.189c-4.748.087-8.755-8.014-8.944-18.105s3.528-18.337,8.276-18.424Z" transform="translate(-324.418 -282.029)" fill="#9dbcfe"/>
          <path id="Path_644" data-name="Path 644" d="M417.882,300.135c.189,10.091-3.528,18.337-8.276,18.424s-8.755-8.029-8.944-18.105,3.528-18.337,8.276-18.424S417.707,290.045,417.882,300.135Z" transform="translate(-321.164 -282.03)" fill="#82a1d8"/>
          <path id="Path_645" data-name="Path 645" d="M410.627,296.586c.058,3.6-1.263,6.548-2.962,6.577s-3.121-2.86-3.194-6.475,1.263-6.548,2.962-6.577S410.569,292.985,410.627,296.586Z" transform="translate(-319.441 -278.378)" fill="#698ec4"/>
        </g>
        <path id="Path_646" data-name="Path 646" d="M381.99,212.987s21.793.784,25-21.067" transform="translate(-184.44 -40.335)" fill="none" stroke="#1f296f" stroke-linecap="round" stroke-linejoin="round" stroke-miterlimit="10" stroke-width="0.75"/>
        <path id="Path_647" data-name="Path 647" d="M297.632,177.61l-8.116,81.582a14.277,14.277,0,0,0,14.214,15.695h0a14.289,14.289,0,0,0,14.287-14.345c-.1-21.59-.436-61.938-1.626-80.812a23.148,23.148,0,0,0-6.766-14.925l-4.269-4.269s-3.63-9.278-8.464-13.1l-1.016-6.78a3.876,3.876,0,0,0-4.486-3.252l-14.824,2.439a3.89,3.89,0,0,0-2.918,2.236c-1.437,3.18-4.283,9.67-5.633,13.851a4.876,4.876,0,0,0,1.728,5.4C273.472,164.136,281.82,169.755,297.632,177.61Z" transform="translate(-236.051 -64.994)" fill="#ff6089"/>
        <line id="Line_103" data-name="Line 103" x2="0.377" y2="15.724" transform="translate(81.588 169.283)" fill="none" stroke="#1f296f" stroke-linecap="round" stroke-linejoin="round" stroke-miterlimit="10" stroke-width="0.75"/>
        <g id="Group_162" data-name="Group 162" transform="translate(102.182)">
          <path id="Path_648" data-name="Path 648" d="M330.785,119.961,326.473,177.7s-1.641,17.989,10.483,18c9.7.015,15.753-10.642,18.381-16.566a15.24,15.24,0,0,0,1.22-7.361l-3.47-42.192C353.086,129.6,334.56,117.813,330.785,119.961Z" transform="translate(-311.743 -72.971)" fill="#ff6089"/>
          <path id="Path_649" data-name="Path 649" d="M353.728,164.948c-.014-.3,0-.6-.014-.9l-1.074-13.1c-7.666-3.122-14.17-9.321-19.949-14.141C336.175,149.383,344,158.312,353.728,164.948Z" transform="translate(-308.9 -65.239)" fill="#1f296f"/>
          <path id="Path_650" data-name="Path 650" d="M331.63,154.24s-11.339,2.221-14.287,23.724,1.35,61.27,1.35,61.27,4.3-3.76,2.962-5.648,6.984-8.334,8.058-5.648-.523,4.036,5.648,2.425,5.1-5.648,5.1-5.648-7.521-41.19-8.421-52.587C330.962,158.813,331.63,154.24,331.63,154.24Z" transform="translate(-316.304 -57.362)" fill="#8aebff"/>
          <path id="Path_651" data-name="Path 651" d="M327.035,216.121S322.2,190.35,322.2,180.39" transform="translate(-313.64 -45.546)" fill="none" stroke="#1f296f" stroke-linecap="round" stroke-linejoin="round" stroke-miterlimit="10" stroke-width="0.75"/>
          <path id="Path_652" data-name="Path 652" d="M320.567,216.834s-1.612-14.243-1.887-25.524" transform="translate(-315.231 -40.611)" fill="none" stroke="#1f296f" stroke-linecap="round" stroke-linejoin="round" stroke-miterlimit="10" stroke-width="0.75"/>
          <path id="Path_653" data-name="Path 653" d="M347.262,150.13c-.566,1.35,13.677.958,16.711,17.481s6.795,58.177,6.795,58.177-5.372-1.887-8.6,0-8.334-4.573-11.818,0-4.835,4.036-4.835,4.036,5.561-58.5,2.294-68.34Z" transform="translate(-303.102 -59.22)" fill="#8aebff"/>
          <path id="Path_654" data-name="Path 654" d="M358.256,220.03c-1.568-3.935-3.238-54.722-4.036-57.19" transform="translate(-299.171 -53.476)" fill="none" stroke="#1f296f" stroke-linecap="round" stroke-linejoin="round" stroke-miterlimit="10" stroke-width="0.75"/>
          <path id="Path_655" data-name="Path 655" d="M351.28,212.848c2.236-27.818,2.25-27.934,1.045-37.778" transform="translate(-300.499 -47.95)" fill="none" stroke="#1f296f" stroke-linecap="round" stroke-linejoin="round" stroke-miterlimit="10" stroke-width="0.75"/>
          <g id="Group_161" data-name="Group 161" transform="translate(11.368)">
            <path id="Path_656" data-name="Path 656" d="M388.608,118c.45,1.568-1.887,11.818-4.036,16.668s-3.76,8.871-7.521,20.965-19.354,20.152-38.432,5.909-4.036-52.936-4.036-52.936S380,88.443,388.608,118Z" transform="translate(-321.957 -81.017)" fill="#ff6089"/>
            <path id="Path_657" data-name="Path 657" d="M326.91,108.386s2.149-10.759,9.945-11.3,5.735-7.8,34.4-9.408c13.938-.784,29.023,1.074,25.524,8.058,0,0,19.354,3.223,3.5,15.056,0,0,9.945,5.111,3.223,9.132S326.91,108.386,326.91,108.386Z" transform="translate(-322.879 -87.515)" fill="#1f296f"/>
            <path id="Path_658" data-name="Path 658" d="M353.018,108.024s-6.025,9.074-13.909,12.7c0,0-2.642,11.441-3.427,12.138s-2.671-9.365-3.078-11.5-6.664,1.583-6.664,1.583l1.423-6.214C327.348,116.721,347.37,103.8,353.018,108.024Z" transform="translate(-323.318 -78.63)" fill="#1f296f"/>
            <path id="Path_659" data-name="Path 659" d="M362.38,124.21s1.408,6.65,2.221,9.771-5.851,4.036-5.851,4.036" transform="translate(-308.491 -70.933)" fill="none" stroke="#1f296f" stroke-linecap="round" stroke-linejoin="round" stroke-miterlimit="10" stroke-width="0.75"/>
            <path id="Path_660" data-name="Path 660" d="M361.167,142.722s-7.651,1.205-12.225-9c0,0-3.76,6.258-1.205,11.789s9.757,2.018,10.163-3.093" transform="translate(-313.87 -66.635)" fill="none" stroke="#1f296f" stroke-linecap="round" stroke-linejoin="round" stroke-miterlimit="10" stroke-width="0.75"/>
            <path id="Path_661" data-name="Path 661" d="M346.85,138.75s5.212.131,8.16,6.185" transform="translate(-313.869 -64.362)" fill="none" stroke="#1f296f" stroke-linecap="round" stroke-linejoin="round" stroke-miterlimit="10" stroke-width="0.75"/>
            <path id="Path_662" data-name="Path 662" d="M356.1,125.082a2.062,2.062,0,1,0-2.062,2.062A2.06,2.06,0,0,0,356.1,125.082Z" transform="translate(-311.551 -71.47)" fill="#1f296f"/>
            <path id="Path_663" data-name="Path 663" d="M366.573,127.012a2.062,2.062,0,1,0-2.062,2.062A2.06,2.06,0,0,0,366.573,127.012Z" transform="translate(-306.819 -70.598)" fill="#1f296f"/>
            <path id="Path_664" data-name="Path 664" d="M360.691,117.24a11.011,11.011,0,0,0-10.279.377c-5.677,3.165,6.258,1.786,8.653,3.572S363.29,118.561,360.691,117.24Z" transform="translate(-312.944 -74.576)" fill="#1f296f"/>
            <path id="Path_665" data-name="Path 665" d="M365.4,119.2c1.554-.813,3.543.711,3.92,1.742,1.423,3.775-2.4,1.278-4.414,2.018S363.976,119.942,365.4,119.2Z" transform="translate(-306.211 -73.3)" fill="#1f296f"/>
            <path id="Path_666" data-name="Path 666" d="M388.437,127.885s-7.448-10.541-28.7-12.428-32.813,6.214-32.813,6.214V104.452c0-3.238,23.375-10.5,40.842-7.535s24.987,11.02,25.8,12.631S391.108,125.533,388.437,127.885Z" transform="translate(-322.875 -83.581)" fill="#b078f0"/>
            <path id="Path_667" data-name="Path 667" d="M334.611,123.447s.276-8.871-6.446-8.6-4.559,15.855,2.962,20.965" transform="translate(-324.134 -75.164)" fill="#ff6089"/>
          </g>
        </g>
        <path id="Path_668" data-name="Path 668" d="M400.583,286.776l-16.726-5.067A6.382,6.382,0,0,0,378.5,283.8l-8.624,9.655a7.4,7.4,0,0,0-.958,8.508l5.154,9.278a4.942,4.942,0,0,0,4.777,2.541,14.17,14.17,0,0,1,4.254.16c3.485.726,5.227-1.96,7.811-1.147,6.867,2.192,7.942-5.111,7.942-5.111h0a3.354,3.354,0,0,1-3.252-2.555l-.406-1.684a3.735,3.735,0,0,1,.77-3.354,17.337,17.337,0,0,0,2.962-6.127A66.236,66.236,0,0,0,400.583,286.776Z" transform="translate(-190.765 0.227)" fill="#ff6089"/>
        <path id="Path_669" data-name="Path 669" d="M344.65,299.6c.581,2.918,6.316,62.112,6.316,62.112l4.341-14.562Z" transform="translate(-201.314 8.324)" fill="#1f296f"/>
        <path id="Path_670" data-name="Path 670" d="M366.031,356.011s-40.9,6.853-63.651-13.561" transform="translate(-220.415 27.688)" fill="none" stroke="#1f296f" stroke-linecap="round" stroke-linejoin="round" stroke-miterlimit="10" stroke-width="0.75"/>
        <path id="Path_671" data-name="Path 671" d="M357,357.425s43.934,2.149,60.166-18.105" transform="translate(-195.733 26.274)" fill="none" stroke="#1f296f" stroke-linecap="round" stroke-linejoin="round" stroke-miterlimit="10" stroke-width="0.75"/>
        <path id="Path_672" data-name="Path 672" d="M347.342,299.936s-5.3-2.033-11.354-9.2-1.481,10.062,7.289,11.455l-5.372,2.889" transform="translate(-206.474 3.531)" fill="none" stroke="#1f296f" stroke-linecap="round" stroke-linejoin="round" stroke-miterlimit="10" stroke-width="0.75"/>
        <path id="Path_673" data-name="Path 673" d="M362.92,180.67l23.346,46.62,1.858-12.588Z" transform="translate(-193.057 -45.419)" fill="#1f296f"/>
        <path id="Path_674" data-name="Path 674" d="M328.767,158.6s-5.459,5.662-6.577,16.624" transform="translate(-211.463 -55.392)" fill="none" stroke="#1f296f" stroke-linecap="round" stroke-linejoin="round" stroke-miterlimit="10" stroke-width="0.75"/>
        <path id="Path_675" data-name="Path 675" d="M349.14,154.24a9.972,9.972,0,0,1,5.474,5.082" transform="translate(-199.285 -57.362)" fill="none" stroke="#1f296f" stroke-linecap="round" stroke-linejoin="round" stroke-miterlimit="10" stroke-width="0.75"/>
        <path id="Path_676" data-name="Path 676" d="M379.687,227.21,371.6,266.121l10.846-31.187Z" transform="translate(-189.135 -24.388)" fill="#1f296f"/>
        <path id="Path_677" data-name="Path 677" d="M389.33,216.912s9.06-3.906,15.695-.334" transform="translate(-181.123 -29.872)" fill="none" stroke="#1f296f" stroke-linecap="round" stroke-linejoin="round" stroke-miterlimit="10" stroke-width="0.75"/>
      </g>
      <g id="Group_173" data-name="Group 173" transform="translate(640.601 134.632)">
        <path id="Path_678" data-name="Path 678" d="M496.1,134.815V297.339a4.3,4.3,0,0,0,4.138,4.3l221.951,9.408,5.75-.581a4.139,4.139,0,0,0,3.717-4.109v-181.7a4.146,4.146,0,0,0-3.76-4.123l-5.575-.508-222.1,10.5A4.3,4.3,0,0,0,496.1,134.815Z" transform="translate(-487.505 -119.944)" fill="#1f296f"/>
        <g id="Group_172" data-name="Group 172">
          <path id="Path_679" data-name="Path 679" d="M490.18,133.88V298.336a4.341,4.341,0,0,0,4.181,4.341l229.646,8.377a4.344,4.344,0,0,0,4.5-4.341v-182.4a4.351,4.351,0,0,0-4.53-4.341l-229.645,9.568A4.356,4.356,0,0,0,490.18,133.88Z" transform="translate(-490.18 -119.967)" fill="#b078f0"/>
          <g id="Group_171" data-name="Group 171" clip-path="url(#clip-path-2)">
            <line id="Line_104" data-name="Line 104" x2="266.233" y2="4.37" transform="translate(-14.199 151.334)" fill="none" stroke="#fff" stroke-linecap="round" stroke-linejoin="round" stroke-miterlimit="10" stroke-width="0.75"/>
            <path id="Path_680" data-name="Path 680" d="M554.526,207.378l-23.056,40.74,10.947,18.8,31.056-48.072a11.07,11.07,0,0,0-4.065-15.768h0A11.079,11.079,0,0,0,554.526,207.378Z" transform="translate(-471.521 -83.006)" fill="#ff6089"/>
            <path id="Path_681" data-name="Path 681" d="M728.522,124.312a4.351,4.351,0,0,0-4.53-4.341l-229.646,9.568a4.358,4.358,0,0,0-4.167,4.341v10l98.148-3.528L728.522,135.3Z" transform="translate(-490.18 -119.967)" fill="#ac64f2"/>
            <path id="Path_682" data-name="Path 682" d="M490.18,139.111l98.162-3.543,140.18-5.038" transform="translate(-490.18 -115.194)" fill="none" stroke="#fff" stroke-linecap="round" stroke-linejoin="round" stroke-miterlimit="10" stroke-width="0.75"/>
            <path id="Path_683" data-name="Path 683" d="M500.11,132.546a2.136,2.136,0,0,0-2.236-2.105,2.275,2.275,0,0,0-2.134,2.323,2.136,2.136,0,0,0,2.236,2.105A2.275,2.275,0,0,0,500.11,132.546Z" transform="translate(-487.668 -115.236)" fill="#fff"/>
            <path id="Path_684" data-name="Path 684" d="M507.64,132.256a2.136,2.136,0,0,0-2.236-2.105,2.275,2.275,0,0,0-2.134,2.323,2.136,2.136,0,0,0,2.236,2.105A2.275,2.275,0,0,0,507.64,132.256Z" transform="translate(-484.265 -115.367)" fill="#fff"/>
            <path id="Path_685" data-name="Path 685" d="M515.43,131.906a2.136,2.136,0,0,0-2.236-2.105,2.275,2.275,0,0,0-2.134,2.323,2.136,2.136,0,0,0,2.236,2.105A2.286,2.286,0,0,0,515.43,131.906Z" transform="translate(-480.745 -115.525)" fill="#fff"/>
            <g id="Group_164" data-name="Group 164" transform="translate(26.377 100.46)">
              <path id="Path_686" data-name="Path 686" d="M518.79,189.64,519.153,210l-5.822.1c-2.642.044-4.878-4.472-4.98-10.091s1.96-10.221,4.617-10.265Z" transform="translate(-508.347 -188.943)" fill="#9dbcfe"/>
              <path id="Path_687" data-name="Path 687" d="M521.958,199.731c.1,5.619-1.96,10.221-4.617,10.265s-4.878-4.472-4.98-10.091,1.96-10.221,4.617-10.265S521.857,194.112,521.958,199.731Z" transform="translate(-506.535 -188.943)" fill="#82a1d8"/>
              <path id="Path_688" data-name="Path 688" d="M554.732,200.938l-38.461.7c-.944.015-1.742-1.6-1.771-3.615s.7-3.644,1.641-3.673l38.461-.7Z" transform="translate(-505.568 -187.131)" fill="#1f296f"/>
              <path id="Path_689" data-name="Path 689" d="M545.28,189.16l.363,20.356-5.822.1c-2.642.044-4.878-4.472-4.98-10.091s1.96-10.221,4.617-10.265Z" transform="translate(-496.377 -189.16)" fill="#9dbcfe"/>
              <path id="Path_690" data-name="Path 690" d="M548.458,199.251c.1,5.619-1.96,10.221-4.617,10.265s-4.878-4.472-4.98-10.091,1.96-10.221,4.617-10.265S548.357,193.632,548.458,199.251Z" transform="translate(-494.56 -189.16)" fill="#82a1d8"/>
              <path id="Path_691" data-name="Path 691" d="M544.412,197.271c.029,2-.7,3.644-1.655,3.673s-1.742-1.6-1.786-3.6.7-3.644,1.655-3.673S544.382,195.267,544.412,197.271Z" transform="translate(-493.606 -187.122)" fill="#698ec4"/>
            </g>
            <g id="Group_166" data-name="Group 166" transform="translate(193.256 24.256)">
              <circle id="Ellipse_39" data-name="Ellipse 39" cx="12.907" cy="12.907" r="12.907" transform="translate(0 18.254) rotate(-45)" fill="none" stroke="#fff" stroke-linecap="round" stroke-linejoin="round" stroke-miterlimit="10" stroke-width="0.75"/>
              <path id="Path_692" data-name="Path 692" d="M640.852,155.759H632.17a9.416,9.416,0,0,1,.406-2.831,4,4,0,0,1,3.005-2.8,2.5,2.5,0,1,1,1.858,0,4.048,4.048,0,0,1,3.005,2.8A9.042,9.042,0,0,1,640.852,155.759Z" transform="translate(-619.272 -132.766)" fill="none" stroke="#fff" stroke-linecap="round" stroke-linejoin="round" stroke-miterlimit="10" stroke-width="0.75"/>
              <g id="Group_165" data-name="Group 165" transform="translate(21.9 12.045)">
                <line id="Line_105" data-name="Line 105" y2="3.818" transform="translate(1.917)" fill="none" stroke="#fff" stroke-linecap="round" stroke-linejoin="round" stroke-miterlimit="10" stroke-width="0.75"/>
                <line id="Line_106" data-name="Line 106" x2="3.818" transform="translate(0 1.916)" fill="none" stroke="#fff" stroke-linecap="round" stroke-linejoin="round" stroke-miterlimit="10" stroke-width="0.75"/>
              </g>
            </g>
            <g id="Group_167" data-name="Group 167" transform="translate(186.161 74.123)">
              <path id="Path_693" data-name="Path 693" d="M618.4,172.849v55.288l45.517,1.452V171.02Z" transform="translate(-618.4 -171.02)" fill="none" stroke="#fff" stroke-linecap="round" stroke-linejoin="round" stroke-miterlimit="10" stroke-width="0.75"/>
              <path id="Path_694" data-name="Path 694" d="M622.12,221.143V176.294l34.7-1.394v47.346Z" transform="translate(-616.719 -169.267)" fill="none" stroke="#fff" stroke-linecap="round" stroke-linejoin="round" stroke-miterlimit="10" stroke-width="0.75"/>
              <path id="Path_695" data-name="Path 695" d="M622.12,198.33s13.865-9.35,15.826-7.39,4.574,5.387,7.608,3.557,11.267-8.7,11.267-8.7" transform="translate(-616.719 -164.341)" fill="none" stroke="#fff" stroke-linecap="round" stroke-linejoin="round" stroke-miterlimit="10" stroke-width="0.75"/>
              <path id="Path_696" data-name="Path 696" d="M631.807,184.759A2.759,2.759,0,1,1,629.049,182,2.757,2.757,0,0,1,631.807,184.759Z" transform="translate(-614.835 -166.058)" fill="none" stroke="#fff" stroke-linecap="round" stroke-linejoin="round" stroke-miterlimit="10" stroke-width="0.75"/>
            </g>
            <path id="Path_697" data-name="Path 697" d="M561.563,199.4c14.316-1.539,36.544-2.715,55.332,1.539a17.009,17.009,0,0,1,13.052,18.5l-6.635,60.6H555.364a258.668,258.668,0,0,1-8.813-63.564A16.849,16.849,0,0,1,561.563,199.4Z" transform="translate(-464.708 -84.709)" fill="#8aebff"/>
            <path id="Path_698" data-name="Path 698" d="M550.65,246.919c1.583,7.361,2.86,11.615,2.86,11.615h67.949l1.423-12.994Z" transform="translate(-462.854 -63.222)" fill="#70c7ed"/>
            <g id="Group_170" data-name="Group 170" transform="translate(17.771 31.134)">
              <path id="Path_699" data-name="Path 699" d="M502.42,164.862l58.714-1v8.014l-58.714-1.466Z" transform="translate(-502.42 -131.266)" fill="none" stroke="#fff" stroke-linecap="round" stroke-linejoin="round" stroke-miterlimit="10" stroke-width="0.75"/>
              <g id="Group_168" data-name="Group 168" transform="translate(8.037)">
                <path id="Path_700" data-name="Path 700" d="M516.8,154.244s-.871-8.537-4.791-12.094,2.4,6.882,2.4,6.882-6.156-5.648-6.446-3.194S516.8,154.244,516.8,154.244Z" transform="translate(-507.955 -141.411)" fill="none" stroke="#fff" stroke-linecap="round" stroke-linejoin="round" stroke-miterlimit="10" stroke-width="0.75"/>
                <path id="Path_701" data-name="Path 701" d="M522.759,171.017H511.942a2.1,2.1,0,0,1-2.076-1.873l-1.742-16.6a2.091,2.091,0,0,1,2.076-2.308h14.287a2.091,2.091,0,0,1,2.076,2.308l-1.742,16.6A2.078,2.078,0,0,1,522.759,171.017Z" transform="translate(-507.885 -137.421)" fill="none" stroke="#fff" stroke-linecap="round" stroke-linejoin="round" stroke-miterlimit="10" stroke-width="0.75"/>
                <path id="Path_702" data-name="Path 702" d="M515.3,152.823s4.559-9.568,6.592-8.116S515.3,152.823,515.3,152.823Z" transform="translate(-504.636 -139.989)" fill="none" stroke="#fff" stroke-linecap="round" stroke-linejoin="round" stroke-miterlimit="10" stroke-width="0.75"/>
              </g>
              <g id="Group_169" data-name="Group 169" transform="translate(33.967)">
                <path id="Path_703" data-name="Path 703" d="M534.664,154.244s-.871-8.537-4.791-12.094,2.4,6.882,2.4,6.882-6.156-5.648-6.446-3.194S534.664,154.244,534.664,154.244Z" transform="translate(-525.815 -141.411)" fill="none" stroke="#fff" stroke-linecap="round" stroke-linejoin="round" stroke-miterlimit="10" stroke-width="0.75"/>
                <path id="Path_704" data-name="Path 704" d="M540.619,170.378H529.8a2.1,2.1,0,0,1-2.076-1.873l-1.742-15.956a2.091,2.091,0,0,1,2.076-2.309h14.287a2.091,2.091,0,0,1,2.076,2.309L542.68,168.5A2.078,2.078,0,0,1,540.619,170.378Z" transform="translate(-525.745 -137.421)" fill="none" stroke="#fff" stroke-linecap="round" stroke-linejoin="round" stroke-miterlimit="10" stroke-width="0.75"/>
                <path id="Path_705" data-name="Path 705" d="M533.54,152.823s4.007-9.568,6.04-8.116S533.54,152.823,533.54,152.823Z" transform="translate(-522.325 -139.989)" fill="none" stroke="#fff" stroke-linecap="round" stroke-linejoin="round" stroke-miterlimit="10" stroke-width="0.75"/>
              </g>
              <path id="Path_706" data-name="Path 706" d="M542.86,163.86H550.9v6.04l-8.043,1.975Z" transform="translate(-484.146 -131.266)" fill="none" stroke="#fff" stroke-linecap="round" stroke-linejoin="round" stroke-miterlimit="10" stroke-width="0.75"/>
            </g>
            <path id="Path_707" data-name="Path 707" d="M609.894,209.018l14.65,40a31.409,31.409,0,0,1,1.887,9.67l2.149,62.765H617.008l-7.855-62.286L589.51,217.555a11.058,11.058,0,0,1,4.632-14.388h0A11.048,11.048,0,0,1,609.894,209.018Z" transform="translate(-445.772 -83.004)" fill="#ff6089"/>
            <path id="Path_708" data-name="Path 708" d="M530.695,216.566l-9.917-9.916a4.827,4.827,0,0,1-1.205-4.791l3.339-8.043a4.789,4.789,0,0,1,3.673-3.325c4.428-.857,11.441-1.336,12.689-.711,1.728.871,1.147,2.976,1.147,2.976l-2.25,6.926s3.775,3.935,4.356,14.867l7.114,51.339a9.52,9.52,0,0,1-8,10.715h0a9.514,9.514,0,0,1-10.933-9.408V216.566Z" transform="translate(-476.989 -88.549)" fill="#ff6089"/>
            <line id="Line_107" data-name="Line 107" x2="2.744" y2="19.804" transform="translate(68.776 149.505)" fill="none" stroke="#1f296f" stroke-linecap="round" stroke-linejoin="round" stroke-miterlimit="10" stroke-width="0.75"/>
            <path id="Path_709" data-name="Path 709" d="M589.99,214.36l15.187,44.689,1.1-10.178Z" transform="translate(-445.077 -77.312)" fill="#1f296f"/>
            <path id="Path_710" data-name="Path 710" d="M573.728,197.836s-2.933-1.118-7.419.915-6.171,23.041,5.053,24.435,21.836-9.5,25.466-16.508,0-8.218-5.6-9.161S573.728,197.836,573.728,197.836Z" transform="translate(-457.33 -85.079)" fill="#fff"/>
            <path id="Path_711" data-name="Path 711" d="M594.329,214.247a24.852,24.852,0,0,0,3.731-5.938c1.626-3.63,6.853-2.613,5.4-10.149,0,0,9.713-.581,9.132-7.826,0,0,3.673-5.067.029-10.294,0,0,3.833-4.21,1.611-11.31s-6.853-7.39-6.853-7.39,2.468-7.535-4.065-12.327-15.8,1.452-16.087.726a8.094,8.094,0,0,0-9.713-4.21,13.822,13.822,0,0,0-8.842,7.1s-1.946-4.646-8.8-1.452-5.837,10.729-5.837,10.729-3.615,6.243.726,11.31,10.584,2.468,10.584,2.468,25.945,27.978,25.219,29.139S594.329,214.247,594.329,214.247Z" transform="translate(-461.96 -108.574)" fill="#1f296f"/>
            <path id="Path_712" data-name="Path 712" d="M588.991,182.33l1.655,24.3s-5.357,16.958-19.092,15.506c-7.376-.784-2.367-14.49-2.367-14.49l.755-15.942Z" transform="translate(-455.228 -91.786)" fill="#ff6089"/>
            <path id="Path_713" data-name="Path 713" d="M588.991,182.33l-19.049,9.379-.174,3.644c4.864-1.321,9.5-2.584,13.459-6.548-2.163,7.913-7.521,13.328-13.967,17.307l-.073,1.539s-5.009,13.706,2.367,14.49c13.72,1.452,19.092-15.506,19.092-15.506Z" transform="translate(-455.228 -91.786)" fill="#ff6089"/>
            <path id="Path_714" data-name="Path 714" d="M569.258,188.79l-.218,4.733a4.4,4.4,0,0,0,.465-.087Z" transform="translate(-454.544 -88.867)" fill="#ff6089"/>
            <path id="Path_715" data-name="Path 715" d="M582.687,186.79c-3.964,3.964-8.61,5.227-13.459,6.548L568.72,204.1C575.166,200.118,580.538,194.7,582.687,186.79Z" transform="translate(-454.688 -89.771)" fill="#1f296f"/>
            <path id="Path_716" data-name="Path 716" d="M557.723,167.746s1.307,15.027,1.089,24.6,5.866,17.829,14.141,18.047,19.136-3.935,21.749-21.314,1.06-27.4-8.61-31.3S555.98,152.763,557.723,167.746Z" transform="translate(-459.705 -104.019)" fill="#ff6089"/>
            <path id="Path_717" data-name="Path 717" d="M565.554,171.12a89.136,89.136,0,0,1-1.161,8.987c-.581,2.178,2.468,2.613,4.936,2.323" transform="translate(-456.677 -96.852)" fill="none" stroke="#1f296f" stroke-linecap="round" stroke-linejoin="round" stroke-miterlimit="10" stroke-width="0.75"/>
            <path id="Path_718" data-name="Path 718" d="M565.24,181s.465,1.887,4.094,3.485,4.7,7.8.726,7.826c-4.82.044-4.123-7.3-3.035-9.147" transform="translate(-456.261 -92.387)" fill="none" stroke="#1f296f" stroke-linecap="round" stroke-linejoin="round" stroke-miterlimit="10" stroke-width="0.75"/>
            <path id="Path_719" data-name="Path 719" d="M556.881,168.325s.247,6.272,9.394,5.677,12.341-6.548,12.341-6.548,4.211,8.116,12.327,4.356c0,0-.29,5.067.871,7.39a19.435,19.435,0,0,1,1.437,5.938s6.693-1.06,5.822,6.214,13.052-6.824,4.646-18.468-15.506-18.9-28.123-18.468S551.8,152.674,556.881,168.325Z" transform="translate(-460.606 -104.409)" fill="#1f296f"/>
            <path id="Path_720" data-name="Path 720" d="M563.882,173.511a1.931,1.931,0,1,0-1.931,1.931A1.93,1.93,0,0,0,563.882,173.511Z" transform="translate(-458.62 -96.644)" fill="#1f296f"/>
            <path id="Path_721" data-name="Path 721" d="M574.8,173.511a1.931,1.931,0,1,0-1.931,1.931A1.93,1.93,0,0,0,574.8,173.511Z" transform="translate(-453.685 -96.644)" fill="#1f296f"/>
            <path id="Path_722" data-name="Path 722" d="M565.64,167.295a7.543,7.543,0,0,0-6.824,1.757c-3.339,2.947,4.457.276,6.316,1.118S567.571,167.789,565.64,167.295Z" transform="translate(-459.535 -98.675)" fill="#1f296f"/>
            <path id="Path_723" data-name="Path 723" d="M571.5,167.295a7.543,7.543,0,0,1,6.824,1.757c3.339,2.947-4.457.276-6.316,1.118S569.573,167.789,571.5,167.295Z" transform="translate(-453.973 -98.675)" fill="#1f296f"/>
            <path id="Path_724" data-name="Path 724" d="M581.05,178.634s2.323-7.68,7.39-5.648,0,12.762-5.793,12.472" transform="translate(-449.117 -96.163)" fill="#ff6089"/>
          </g>
        </g>
      </g>
    </g>
    <g id="Group_70" data-name="Group 70" transform="translate(1233.779 2220.998)">
      <circle id="Ellipse_22" data-name="Ellipse 22" cx="25.974" cy="25.974" r="25.974" fill="#ac64f2"/>
      <g id="Group_69" data-name="Group 69" transform="translate(10.415 15.017)">
        <path id="Path_254" data-name="Path 254" d="M192.259,298.558a22.021,22.021,0,0,0-31.119,0" transform="translate(-161.14 -292.12)" fill="none" stroke="#fff" stroke-miterlimit="10" stroke-width="0.75"/>
        <path id="Path_255" data-name="Path 255" d="M165.75,302.422a12.958,12.958,0,0,1,18.3,0" transform="translate(-159.34 -289.574)" fill="none" stroke="#fff" stroke-miterlimit="10" stroke-width="0.75"/>
        <path id="Path_256" data-name="Path 256" d="M170.36,306.286a3.894,3.894,0,0,1,5.479,0" transform="translate(-157.54 -287.028)" fill="none" stroke="#fff" stroke-miterlimit="10" stroke-width="0.75"/>
      </g>
    </g>
  </g>
</svg>
