<svg xmlns="http://www.w3.org/2000/svg" width="255.656" height="50.78" viewBox="0 0 255.656 50.78">
  <g id="logo" transform="translate(-200.061 -467.702)">
    <g id="Group_2" data-name="Group 2" transform="translate(200.061 467.702)">
      <g id="Group_1" data-name="Group 1">
        <path id="Path_1" data-name="Path 1" d="M257.976,518.482a4.165,4.165,0,0,1-.546-.033,4.689,4.689,0,0,1-3.45-2.2,19.927,19.927,0,0,0-33.188-1.093,4.7,4.7,0,0,1-7.159.612l-12.2-12.2a4.7,4.7,0,0,1,0-6.643l24.311-24.311a16.682,16.682,0,0,1,11.874-4.919h0a16.688,16.688,0,0,1,11.876,4.924l24.821,24.834a4.7,4.7,0,0,1,0,6.646l-13.021,13A4.7,4.7,0,0,1,257.976,518.482ZM237,497.4a29.147,29.147,0,0,1,21.438,9.281l5.912-5.9-21.5-21.51a7.335,7.335,0,0,0-5.231-2.168h0a7.346,7.346,0,0,0-5.231,2.166l-20.99,20.99,5.309,5.307A29.309,29.309,0,0,1,237,497.4Z" transform="translate(-200.061 -467.702)" fill="#03d2da"/>
      </g>
    </g>
    <g id="Group_3" data-name="Group 3" transform="translate(283.811 477.654)">
      <path id="Path_2" data-name="Path 2" d="M260.741,494.653H246.687l-2.769,6.5h-5.381l12.649-28.108h5.139l12.69,28.108h-5.463Zm-1.726-4.1-5.3-12.287-5.259,12.287Z" transform="translate(-238.537 -471.362)" fill="#242424"/>
      <path id="Path_3" data-name="Path 3" d="M289.822,485.4v12.287H284.8V486.039c0-3.814-1.767-5.662-4.819-5.662-3.293,0-5.581,2.168-5.581,6.426v10.881h-5.019V486.039c0-3.814-1.768-5.662-4.819-5.662-3.333,0-5.581,2.168-5.581,6.426v10.881h-5.019V476.242h4.778v2.732A8.882,8.882,0,0,1,265.769,476c3.13,0,5.74,1.167,7.227,3.576a10.007,10.007,0,0,1,8.03-3.576C286.206,476,289.822,478.932,289.822,485.4Z" transform="translate(-220.386 -467.89)" fill="#242424"/>
      <path id="Path_4" data-name="Path 4" d="M294.517,485.4v12.287h-5.022V486.039c0-3.814-1.887-5.662-5.1-5.662-3.572,0-5.984,2.168-5.984,6.465v10.842h-5.017V476.242h4.778v2.771A9.324,9.324,0,0,1,285.559,476C290.7,476,294.517,478.932,294.517,485.4Z" transform="translate(-197.521 -467.89)" fill="#242424"/>
      <path id="Path_5" data-name="Path 5" d="M304.808,485.116v12.568h-4.736v-2.61c-1.206,1.848-3.535,2.891-6.748,2.891-4.9,0-7.991-2.69-7.991-6.423,0-3.574,2.41-6.384,8.916-6.384h5.542v-.322c0-2.932-1.768-4.658-5.342-4.658a10.62,10.62,0,0,0-6.506,2.129l-1.968-3.655A15.078,15.078,0,0,1,295.052,476C301.236,476,304.808,478.932,304.808,485.116Zm-5.017,5.864v-2.49H294.61c-3.415,0-4.336,1.284-4.336,2.851,0,1.807,1.526,2.971,4.094,2.971A5.471,5.471,0,0,0,299.791,490.98Z" transform="translate(-183.473 -467.89)" fill="#242424"/>
      <path id="Path_6" data-name="Path 6" d="M319.284,472.274v29.794h-4.819V499.3a8.843,8.843,0,0,1-7.109,3.052c-6.223,0-10.84-4.336-10.84-11s4.617-10.964,10.84-10.964a8.783,8.783,0,0,1,6.909,2.893v-11Zm-4.941,19.074c0-4.1-2.769-6.706-6.384-6.706s-6.384,2.61-6.384,6.706,2.771,6.706,6.384,6.706S314.343,495.443,314.343,491.348Z" transform="translate(-170.314 -472.274)" fill="#242424"/>
      <path id="Path_7" data-name="Path 7" d="M308.879,495.557l1.926-3.816a14.424,14.424,0,0,0,7.468,2.129c3.171,0,4.5-.884,4.5-2.368,0-4.1-13.252-.242-13.252-8.794,0-4.057,3.655-6.709,9.436-6.709a17.062,17.062,0,0,1,8.03,1.848l-1.926,3.816a11.724,11.724,0,0,0-6.145-1.606c-3.049,0-4.495,1-4.495,2.41,0,4.336,13.252.481,13.252,8.874,0,4.016-3.7,6.624-9.719,6.624A17.036,17.036,0,0,1,308.879,495.557Z" transform="translate(-155.767 -467.89)" fill="#242424"/>
    </g>
    <g id="Group_4" data-name="Group 4" transform="translate(202.118 468.642)">
      <path id="Path_8" data-name="Path 8" d="M210.853,473.029a4.924,4.924,0,1,1-4.911-4.9A4.8,4.8,0,0,1,210.853,473.029Zm-.81,0a4.013,4.013,0,0,0-4.1-4.129,4.158,4.158,0,1,0,4.1,4.129Zm-2.677.893,1.228,1.885h-1.2l-1.086-1.674h-1.243v1.674h-1.2v-5.5h2.288c1.452,0,2.318.751,2.318,1.911A1.711,1.711,0,0,1,207.366,473.922Zm-1.284-.725c.781,0,1.228-.364,1.228-.975s-.446-.964-1.228-.964H205.05V473.2Z" transform="translate(-201.006 -468.134)"/>
    </g>
  </g>
</svg>
