<svg xmlns="http://www.w3.org/2000/svg" width="108.756" height="50.336" viewBox="0 0 108.756 50.336">
  <g id="namshi" transform="translate(0 0)">
    <path id="Rectangle-path" d="M357.4,189.426V186l3.48.018v3.408Z" transform="translate(-297.33 -185.946)" fill="#fff"/>
    <path id="Shape" d="M154.392,354.3,146,374.021l3.408.018,1.958-4.731,8.954.018,1.921,4.731,3.516.018-8.3-19.757Zm-1.776,11.945,3.281-7.83,3.263,7.849Z" transform="translate(-124.249 -323.74)" fill="#fff"/>
    <path id="Rectangle-path_1_" d="M605.9,190.026l.018-3.426,3.48.018-.018,3.408Z" transform="translate(-500.787 -186.437)" fill="#fff"/>
    <path id="Rectangle-path_2_" d="M314,189.226l.018-3.426,3.48.018v3.408Z" transform="translate(-261.797 -185.782)" fill="#fff"/>
    <path id="Rectangle-path_3_" d="M45.3,307.308V303.9h3.48v3.426Z" transform="translate(-41.802 -282.475)" fill="#fff"/>
    <path id="Rectangle-path_4_" d="M270.8,189.108V185.7l3.48.018v3.408Z" transform="translate(-226.427 -185.7)" fill="#fff"/>
    <path id="Shape_1_" d="M29.353,359.992l10.586,14.066,2.81.018.054-19.739H39.486l-.036,13.631L29.172,354.3H26.054L26,374.021l3.317.018Z" transform="translate(-26 -323.74)" fill="#fff"/>
    <path id="Rectangle-path_5_" d="M82.4,307.408V304h3.5l-.018,3.426Z" transform="translate(-72.177 -282.557)" fill="#fff"/>
    <path id="Shape_2_" d="M290.242,374.076l.036-19.721-3.571-.018-5.818,9.317-5.782-9.353h-3.571l-.036,19.721,3.281.018.036-14.1,5.945,9.262h.109l6.054-9.281-.054,14.156Z" transform="translate(-227.001 -323.74)" fill="#fff"/>
    <path id="Rectangle-path_6_" d="M605.2,373.031l.054-19.431h3.48l-.054,19.431Z" transform="translate(-500.214 -323.166)" fill="#fff"/>
    <path id="Shape_3_" d="M512.971,362.529l-9.081-.018.018-8.211h-3.353l-.054,19.721,3.371.018.018-8.32,9.063.036-.018,8.3,3.335.018.054-19.739h-3.335Z" transform="translate(-414.492 -323.74)" fill="#fff"/>
    <path id="Shape_4_" d="M118.878,227.418l12.4.036,3.444.018.036-14.628-3.444-.018-.036,11.148-12.38-.036a8.61,8.61,0,0,0-16.912-.091l-12.362-.036.036-11.111-3.444-.018-.036,11.111H81.756l.036-11.111-3.444-.018-.036,11.111-4.459-.018.036-11.129-3.444-.018-.036,11.129-11.8-.036.036-11.111-4.55-.018a7.562,7.562,0,0,0-7.577,7.522l-.036,3.553-17.02-.054v-.036a7.6,7.6,0,0,1,7.577-7.577l2.628.018.018-3.48-2.628-.018A11.078,11.078,0,0,0,26,223.557v3.5l23.926.073.018-7.051a4.085,4.085,0,0,1,4.115-4.042h1.088l-.036,11.111,46.838.109a8.675,8.675,0,0,0,8.429,7A8.536,8.536,0,0,0,118.878,227.418Zm-8.447,3.426a5.23,5.23,0,1,1,5.184-5.22A5.214,5.214,0,0,1,110.431,230.843Z" transform="translate(-26 -207.642)" fill="#fff"/>
    <path id="Shape_5_" d="M400,362.574c-3.661-.888-4.531-1.559-4.531-3.063,0-1.287,1.16-2.3,3.136-2.3a8.684,8.684,0,0,1,5.184,1.976l1.813-2.556a10.512,10.512,0,0,0-6.942-2.429c-3.807-.018-6.544,2.23-6.544,5.583-.018,3.571,2.284,4.785,6.344,5.782,3.553.834,4.314,1.577,4.314,2.991,0,1.486-1.323,2.447-3.39,2.429a8.757,8.757,0,0,1-6.054-2.52l-2.03,2.411a11.737,11.737,0,0,0,7.975,3.081c4.024.018,6.852-2.121,6.852-5.746C406.163,365.021,404.043,363.571,400,362.574Z" transform="translate(-325.086 -323.657)" fill="#fff"/>
  </g>
</svg>
