<svg xmlns="http://www.w3.org/2000/svg" width="87.801" height="88.237" viewBox="0 0 87.801 88.237">
  <g id="noon" transform="translate(0)">
    <path id="Path_1299" data-name="Path 1299" d="M212.018,385.2l-7.377,12.654c6.237,5.488,10.345,12.984,10.345,21.95a30.01,30.01,0,0,1-30.017,30.017c-16.583,0-30.526-13.434-30.526-30.017a26.947,26.947,0,0,1,.66-6.267l-14,8.186c0,22.34,18.682,42.011,43.87,42.011A43.923,43.923,0,0,0,212.018,385.2Z" transform="translate(-141.1 -375.498)" fill="#4a4a4a"/>
    <path id="Path_1300" data-name="Path 1300" d="M258.5,367.855l7.437-12.774s-6.417-3.688-18.682-1.589L237.9,369.835C237.87,369.865,245.726,364.677,258.5,367.855Z" transform="translate(-208.873 -352.846)" fill="#4a4a4a"/>
  </g>
</svg>
