<svg xmlns="http://www.w3.org/2000/svg" width="48.522" height="62" viewBox="0 0 48.522 62">
  <g id="pin-3" transform="translate(-3)">
    <path id="Path_1438" data-name="Path 1438" d="M27.261,0C15.4,0,3,9.165,3,24.261c0,14.287,21.565,36.122,22.374,36.93a2.606,2.606,0,0,0,3.774,0c.809-.809,22.374-22.643,22.374-36.93C51.522,9.165,39.122,0,27.261,0Zm0,32.348a7.943,7.943,0,0,1-8.087-8.087,7.943,7.943,0,0,1,8.087-8.087,7.943,7.943,0,0,1,8.087,8.087A7.943,7.943,0,0,1,27.261,32.348Z" transform="translate(0)" fill="#b078f0"/>
  </g>
</svg>
