<svg xmlns="http://www.w3.org/2000/svg" xmlns:xlink="http://www.w3.org/1999/xlink" width="132" height="132" viewBox="0 0 132 132">
  <defs>
    <linearGradient id="linear-gradient" x1="-0.069" y1="0.228" x2="1" y2="0.806" gradientUnits="objectBoundingBox">
      <stop offset="0" stop-color="#c7f5f7"/>
      <stop offset="1" stop-color="#fff"/>
    </linearGradient>
  </defs>
  <g id="play-icon" transform="translate(-725 -683)">
    <circle id="Ellipse_5" data-name="Ellipse 5" cx="66" cy="66" r="66" transform="translate(725 683)" fill="url(#linear-gradient)"/>
    <path id="Polygon_1" data-name="Polygon 1" d="M24.029,6.058a4,4,0,0,1,6.941,0l20.6,35.954A4,4,0,0,1,48.1,48H6.9a4,4,0,0,1-3.471-5.988Z" transform="translate(818.5 721.5) rotate(90)" fill="#03d2da"/>
    <path id="Union_5" data-name="Union 5" d="M0,86a4,4,0,1,1,4,4A4,4,0,0,1,0,86Zm19-7a1,1,0,1,1,1,1A1,1,0,0,1,19,79ZM48,16a4,4,0,1,1,4,4A4,4,0,0,1,48,16ZM56,6a6,6,0,1,1,6,6A6,6,0,0,1,56,6ZM43,3a1,1,0,1,1,1,1A1,1,0,0,1,43,3Z" transform="translate(771 710)" fill="#aff2f5"/>
  </g>
</svg>
