<svg xmlns="http://www.w3.org/2000/svg" xmlns:xlink="http://www.w3.org/1999/xlink" width="1009.805" height="678.2" viewBox="0 0 1009.805 678.2">
  <defs>
    <linearGradient id="linear-gradient" x1="1.153" y1="0.741" x2="-0.205" y2="0.338" gradientUnits="objectBoundingBox">
      <stop offset="0" stop-color="#c7f5f7"/>
      <stop offset="1" stop-color="#fff"/>
    </linearGradient>
    <clipPath id="clip-path">
      <path id="Path_423" data-name="Path 423" d="M220.413,101.219l535.962,69.615A35.033,35.033,0,0,1,786.9,205.577v269.7a35.039,35.039,0,0,1-30.824,34.786L619.849,526.573a35.039,35.039,0,0,0-30.824,34.786h0a35.056,35.056,0,0,1-30.7,34.772l-309.239,38.7a35.024,35.024,0,0,1-39.32-32.6l-28.85-464.087A35.049,35.049,0,0,1,220.413,101.219Z" transform="translate(-180.851 -100.922)"/>
    </clipPath>
    <linearGradient id="linear-gradient-2" x1="1.023" y1="0.697" x2="0.009" y2="0.726" xlink:href="#linear-gradient"/>
  </defs>
  <g id="vector" transform="translate(-765 -256.953)">
    <path id="logo_pattern" data-name="logo pattern" d="M765.927,677.763a62.593,62.593,0,0,1-46.061-29.333c-48.851-79.1-133.592-126.341-226.645-126.341A265.092,265.092,0,0,0,276.775,633.837a62.721,62.721,0,0,1-95.581,8.17L18.366,479.121a62.761,62.761,0,0,1,0-88.726L342.947,65.7A222.684,222.684,0,0,1,501.474,0h.029A222.758,222.758,0,0,1,660.058,65.758L991.439,397.43a62.728,62.728,0,0,1-.058,88.755L817.539,659.855A62.782,62.782,0,0,1,773.221,678.2,55.566,55.566,0,0,1,765.927,677.763Z" transform="translate(765 256.953)" fill="#03d2da"/>
    <g id="Group_383" data-name="Group 383">
      <ellipse id="Ellipse_167" data-name="Ellipse 167" cx="33" cy="7" rx="33" ry="7" transform="translate(1030 912)" fill="#d8f5f6"/>
      <ellipse id="Ellipse_168" data-name="Ellipse 168" cx="33" cy="7" rx="33" ry="7" transform="translate(1190 882)" fill="#d8f5f6"/>
      <ellipse id="Ellipse_169" data-name="Ellipse 169" cx="33" cy="7" rx="33" ry="7" transform="translate(1389 912)" fill="#d8f5f6"/>
      <ellipse id="Ellipse_170" data-name="Ellipse 170" cx="33" cy="7" rx="33" ry="7" transform="translate(1563 882)" fill="#d8f5f6"/>
    </g>
    <g id="_03._Study_from_Home" data-name="03. Study from Home" transform="translate(758.115 210.881)">
      <path id="Path_421" data-name="Path 421" d="M220.413,101.219l535.962,69.615A35.033,35.033,0,0,1,786.9,205.577v269.7a35.039,35.039,0,0,1-30.824,34.786L619.849,526.573a35.039,35.039,0,0,0-30.824,34.786h0a35.056,35.056,0,0,1-30.7,34.772l-309.239,38.7a35.024,35.024,0,0,1-39.32-32.6l-28.85-464.087A35.049,35.049,0,0,1,220.413,101.219Z" transform="translate(0 0)" fill="url(#linear-gradient)"/>
      <g id="Group_120" data-name="Group 120" transform="translate(180.851 100.922)">
        <g id="Group_112" data-name="Group 112" transform="translate(0 0)" clip-path="url(#clip-path)">
          <path id="Path_422" data-name="Path 422" d="M303.612,74.96,324.28,362.93H134.46L157.918,87.375Z" transform="translate(-200.815 -112.095)" fill="none" stroke="#9dbcfe" stroke-miterlimit="10" stroke-width="0.75"/>
        </g>
        <g id="Group_113" data-name="Group 113" transform="translate(0 0)" clip-path="url(#clip-path)">
          <line id="Line_84" data-name="Line 84" x1="11.014" y1="317.478" transform="translate(48.015 -64.711)" fill="none" stroke="#9dbcfe" stroke-miterlimit="10" stroke-width="0.75"/>
        </g>
        <g id="Group_114" data-name="Group 114" transform="translate(0 0)" clip-path="url(#clip-path)">
          <path id="Path_425" data-name="Path 425" d="M512.1,154.925l-160.055-15.4H318.32v13.617h33.57l169.9,13.345" transform="translate(-121.693 -84.312)" fill="none" stroke="#9dbcfe" stroke-miterlimit="10" stroke-width="0.75"/>
        </g>
        <g id="Group_115" data-name="Group 115" transform="translate(0 0)" clip-path="url(#clip-path)">
          <path id="Path_427" data-name="Path 427" d="M366.59,119.341l.272,39.234,55.3,5.307V103.25" transform="translate(-100.921 -99.92)" fill="none" stroke="#9dbcfe" stroke-miterlimit="10" stroke-width="0.75"/>
        </g>
        <g id="Group_116" data-name="Group 116" transform="translate(0 0)" clip-path="url(#clip-path)">
          <line id="Line_85" data-name="Line 85" y2="56.241" transform="translate(337.773 9.309)" fill="none" stroke="#9dbcfe" stroke-miterlimit="10" stroke-width="0.75"/>
        </g>
        <g id="Group_117" data-name="Group 117" transform="translate(0 0)" clip-path="url(#clip-path)">
          <line id="Line_86" data-name="Line 86" x1="145.666" y1="12.258" transform="translate(-37.391 43.637)" fill="none" stroke="#9dbcfe" stroke-miterlimit="10" stroke-width="0.75"/>
        </g>
        <g id="Group_118" data-name="Group 118" transform="translate(0 0)" clip-path="url(#clip-path)">
          <path id="Path_431" data-name="Path 431" d="M586.257,143.892V177.2l-75.407-7.08V118.36" transform="translate(-38.84 -93.418)" fill="none" stroke="#9dbcfe" stroke-miterlimit="10" stroke-width="0.75"/>
        </g>
        <g id="Group_119" data-name="Group 119" clip-path="url(#clip-path)">
          <line id="Line_87" data-name="Line 87" y1="72.103" x2="628.49" transform="translate(10.883 388.277)" fill="none" stroke="#9dbcfe" stroke-miterlimit="10" stroke-width="0.75"/>
        </g>
      </g>
      <g id="Group_122" data-name="Group 122" transform="translate(341.3 501.013)">
        <path id="Path_434" data-name="Path 434" d="M331.03,380.64V528.265a47.83,47.83,0,0,1,10.656,23.429" transform="translate(-276.672 -380.64)" fill="none" stroke="#1f296f" stroke-miterlimit="10" stroke-width="6"/>
        <g id="Group_121" data-name="Group 121" transform="translate(0 139.815)">
          <path id="Path_435" data-name="Path 435" d="M301.59,515.636h0a37.249,37.249,0,0,1,37.246-37.246h10.828a37.249,37.249,0,0,1,37.246,37.246h0" transform="translate(-289.341 -478.39)" fill="none" stroke="#1f296f" stroke-miterlimit="10" stroke-width="6"/>
          <circle id="Ellipse_29" data-name="Ellipse 29" cx="10.656" cy="10.656" r="10.656" transform="translate(0 22.408) rotate(-9.196)" fill="#1f296f"/>
          <circle id="Ellipse_30" data-name="Ellipse 30" cx="10.656" cy="10.656" r="10.656" transform="translate(81.395 31.252) rotate(-45)" fill="#1f296f"/>
          <circle id="Ellipse_31" data-name="Ellipse 31" cx="10.656" cy="10.656" r="10.656" transform="translate(49.94 31.249) rotate(-45)" fill="#1f296f"/>
        </g>
        <path id="Path_436" data-name="Path 436" d="M337.853,484.564h-9.2a3.382,3.382,0,0,1-3.376-3.376v-14.1a3.382,3.382,0,0,1,3.376-3.376h9.2a3.382,3.382,0,0,1,3.376,3.376v14.1A3.382,3.382,0,0,1,337.853,484.564Z" transform="translate(-279.147 -344.892)" fill="#1f296f"/>
      </g>
      <path id="Path_437" data-name="Path 437" d="M631.522,411.248,519.069,425.266a21.72,21.72,0,0,0-18.981,23.157l3.118,41.923a21.728,21.728,0,0,0,26.261,19.624l102.956-22.328a21.705,21.705,0,0,0,17.121-21.226V427.168A16.032,16.032,0,0,0,631.522,411.248Z" transform="translate(137.354 133.49)" fill="url(#linear-gradient-2)"/>
      <path id="Path_438" data-name="Path 438" d="M648.09,331.14V577.115H641.9L633.93,331.14Z" transform="translate(194.977 99.072)" fill="#8eeef2"/>
      <path id="Path_439" data-name="Path 439" d="M386.98,331.14V577.115h-6.193L372.82,331.14Z" transform="translate(82.612 99.072)" fill="#9dbcfe"/>
      <path id="Path_440" data-name="Path 440" d="M389.638,472.01h0a20.309,20.309,0,0,0-.744,12.887l6.522,23.9a10.438,10.438,0,0,0,10.07,7.7h30.953c4.062,0,5.936-4.019,2.961-6.78-1.345-1.244-18.952-10.413-20.911-11.142C411.151,495.768,389.638,472.01,389.638,472.01Z" transform="translate(89.222 159.693)" fill="#25293f"/>
      <g id="Group_123" data-name="Group 123" transform="translate(609.951 616.284)">
        <path id="Path_441" data-name="Path 441" d="M501.976,492.955l8.3-13.674a37.782,37.782,0,0,1,22.113-17.007c5.578-1.531,9.526-1.273,8.41.086l-44.641,73.677-15.3-14.961Z" transform="translate(-480.85 -461.23)" fill="#1f296f"/>
        <path id="Path_442" data-name="Path 442" d="M491.949,535.584h0c-3.29-3.075-2.246-7.137-.3-10.971l16.177-37.546c6.193-12.2,15.619-20.926,26.862-24.9h0c2.532-.887,5.206,2.374,4.663,5.693l-.315,1.931A67.976,67.976,0,0,1,527.364,498.9L509.528,531.15C507.053,537.715,494.91,538.344,491.949,535.584Z" transform="translate(-476.987 -460.891)" fill="#25293f"/>
      </g>
      <path id="Path_443" data-name="Path 443" d="M427.282,282.374,410.09,253.51a41.226,41.226,0,0,0-31.6-19.968l-20.254-1.9,45.957,72.6C408.574,293.545,415.539,284.734,427.282,282.374Z" transform="translate(76.337 56.253)" fill="#9046e6"/>
      <path id="Path_444" data-name="Path 444" d="M386.5,282.3s7.295-19.267,24.545-19.982" transform="translate(88.499 69.456)" fill="none" stroke="#fff" stroke-miterlimit="10" stroke-width="0.75"/>
      <path id="Path_445" data-name="Path 445" d="M487.533,222.871h-5.764l-3.7,4.563c.143,1.931-.5,3.8-3.347,4.105l3.347-4.105a13.628,13.628,0,0,0-1.387-4.563h5.092l5.678-6.98-12.73-2.36a10.31,10.31,0,0,0-8.639,2.374L451.76,228.45a31.126,31.126,0,0,0-8.1,11.142L418.333,298.45l-4.877-8.2c-11.729,2.374-18.709,11.171-23.086,21.87L406.676,337.9a16,16,0,0,0,28.678-3.476l31.167-92.915a19.442,19.442,0,0,0,10.513-6.78c1.23.515,6.508,2.231,10.427.315,3.4-1.673,3.09-9.183,3.919-13.517A6.23,6.23,0,0,1,487.533,222.871Z" transform="translate(90.164 48.387)" fill="#ff6089"/>
      <path id="Path_446" data-name="Path 446" d="M452.687,223.2c.143,1.931-.5,3.8-3.347,4.105Z" transform="translate(115.541 52.621)" fill="#ff6089"/>
      <path id="Path_447" data-name="Path 447" d="M464.34,220.659c-.143.143-.3.286-.458.415a6.158,6.158,0,0,1-3.848,1.359H454.27l5.678-6.98.872-1.073a6.381,6.381,0,0,1,3.376,2.231A2.743,2.743,0,0,1,464.34,220.659Z" transform="translate(117.663 48.825)" fill="#ff6089"/>
      <path id="Path_448" data-name="Path 448" d="M281.38,386.379h0A17.286,17.286,0,0,0,300.16,403.6l141.06-12.172,72.2-19.31-11.4-16.549Z" transform="translate(43.261 109.585)" fill="#25293f"/>
      <path id="Path_449" data-name="Path 449" d="M416.644,432.444,383.3,244.455a13.194,13.194,0,0,0-12.987-10.885H265.9A13.2,13.2,0,0,0,253,249.533l40.707,189.348Z" transform="translate(30.92 57.083)" fill="#25293f"/>
      <path id="Path_450" data-name="Path 450" d="M420.474,430.194,387.133,242.2a13.194,13.194,0,0,0-12.987-10.885H269.731a13.2,13.2,0,0,0-12.9,15.963l40.707,189.348Z" transform="translate(32.568 56.115)" fill="#1f296f"/>
      <path id="Path_451" data-name="Path 451" d="M285.21,377.076l124.211,8.267L524.205,369.71l-116.072.93Z" transform="translate(44.91 115.67)" fill="#25293f"/>
      <path id="Path_452" data-name="Path 452" d="M341.9,338.96l139.6,5.035a24.789,24.789,0,0,1,21.727,34.915L439.192,521.786l-24.015-8.267,39.206-130.576-97.163,15.634Z" transform="translate(69.305 102.437)" fill="#404da5"/>
      <path id="Path_453" data-name="Path 453" d="M341.9,338.96l139.6,5.035a24.789,24.789,0,0,1,21.727,34.915L439.192,521.786l-24.015-8.267,39.206-130.576-97.163,15.634Z" transform="translate(69.305 102.437)" fill="#0c50aa"/>
      <g id="Group_124" data-name="Group 124" transform="translate(356.478 430.211)">
        <path id="Path_454" data-name="Path 454" d="M573.76,555.4l-16.32,21.713L445.3,475.647s-19.9-10.184-45-25.417c-6.565-3.991-13.474-8.31-20.5-12.887-31.51-20.568-67.7-42.953-73.4-59.087-7.123-20.168,1.774-41.308,1.774-41.308l85.792-5.807,5.006,46.586,53.781,46.329,18.094,15.591Z" transform="translate(-303.638 -331.14)" fill="#1e7bf5"/>
        <path id="Path_455" data-name="Path 455" d="M411.86,451.131a34.083,34.083,0,0,0,.586,6.322c-3.848-2.246-7.924-4.663-12.144-7.223-6.565-3.991-13.474-8.31-20.5-12.887-31.51-20.568-67.7-42.953-73.4-59.087-7.123-20.168,1.774-41.308,1.774-41.308l85.792-5.807,5.006,46.586,44.97,38.734A34.778,34.778,0,0,0,411.86,451.131Z" transform="translate(-303.638 -331.14)" fill="#0c50aa"/>
      </g>
      <path id="Path_456" data-name="Path 456" d="M339.455,228.98l64.751,6.079c.515.043,1.03.114,1.545.2,12.616,2,20.611,14.69,17.822,27.162l3.376,14.647a24.827,24.827,0,0,1-2.3,17.278L410.5,320.779l5.278,64.594a11.49,11.49,0,0,1-5.807,10.956l-7.323,4.148a20.3,20.3,0,0,1-15.262,1.96L306.8,380.953l16.477-47.888-8.3-79.369A22.5,22.5,0,0,1,339.455,228.98Z" transform="translate(54.201 55.065)" fill="#b078f0"/>
      <line id="Line_88" data-name="Line 88" x1="6.88" y2="12.558" transform="translate(457.82 375.83)" fill="none" stroke="#1f296f" stroke-miterlimit="10" stroke-width="0.75"/>
      <path id="Path_457" data-name="Path 457" d="M343.719,249.03,315.67,288.021l.758,7.295Z" transform="translate(58.018 63.736)" fill="#1f296f"/>
      <path id="Path_458" data-name="Path 458" d="M337.68,306.232s68.713,12.229,92.915-9.526l63.207-8.1s-5.779,7.152-23.157,13.3-50.949,7.381-69.786,1.244Z" transform="translate(67.489 80.769)" fill="#fff"/>
      <path id="Path_459" data-name="Path 459" d="M350.119,226.37l-3.218,7.08a14.811,14.811,0,0,0-1.33,6.465,106.2,106.2,0,0,0,4,26.79,1.445,1.445,0,0,0,2.16.83l18.823-11.714C370.53,255.835,356.613,247.8,350.119,226.37Z" transform="translate(70.884 53.985)" fill="#fff"/>
      <path id="Path_460" data-name="Path 460" d="M364.246,231.469s7.023,17.522-1.216,23.286l14.017,11.929a1.436,1.436,0,0,0,2.374-1.144c-.229-6.394-1.244-20.926-5.535-31.053l-3.1-5.607Z" transform="translate(78.399 55.065)" fill="#fff"/>
      <path id="Path_461" data-name="Path 461" d="M299.817,268.61,275.93,306l25.9,16.878,27.849-38.805C321.715,274.375,312.69,267.094,299.817,268.61Z" transform="translate(40.916 72.076)" fill="#ff6089"/>
      <path id="Path_462" data-name="Path 462" d="M340.542,228.964a18.166,18.166,0,0,0-17.035,8.325L292.64,285.62c12.873-1.516,21.9,5.764,29.865,15.462L353.644,257.7A18.215,18.215,0,0,0,340.542,228.964Z" transform="translate(48.107 55.067)" fill="#9046e6"/>
      <line id="Line_89" data-name="Line 89" x1="6.408" y2="14.69" transform="translate(502.089 346.823)" fill="none" stroke="#1f296f" stroke-miterlimit="10" stroke-width="0.75"/>
      <path id="Path_463" data-name="Path 463" d="M446.83,216.134S472,213,478.684,209.368s5.95,4.32-6.036,8.6c-9.54,3.4-12.358,4.892-12.358,4.892" transform="translate(114.461 46.27)" fill="#ff6089"/>
      <path id="Path_464" data-name="Path 464" d="M458.655,222.547a5.907,5.907,0,1,1-5.907-5.907A5.909,5.909,0,0,1,458.655,222.547Z" transform="translate(114.465 49.798)" fill="#ff6089"/>
      <path id="Path_465" data-name="Path 465" d="M449.34,213.48l15.677,2.889a2.758,2.758,0,0,1,1.43,4.677" transform="translate(115.541 48.438)" fill="none" stroke="#1f296f" stroke-miterlimit="10" stroke-width="0.75"/>
      <path id="Path_466" data-name="Path 466" d="M467.541,218.77h0a6.118,6.118,0,0,1-4.305,1.759H452.38s1.616,6.866-5.55,8.553" transform="translate(114.461 50.714)" fill="none" stroke="#1f296f" stroke-miterlimit="10" stroke-width="0.75"/>
      <path id="Path_467" data-name="Path 467" d="M452.011,229.809s-3.891-1.287-3.461-2.889,4.978-2.16,4.978-2.16" transform="translate(115.187 53.292)" fill="none" stroke="#1f296f" stroke-miterlimit="10" stroke-width="0.75"/>
      <path id="Path_468" data-name="Path 468" d="M464.129,222.38a18.106,18.106,0,0,1-11.829.343" transform="translate(116.815 52.268)" fill="none" stroke="#1f296f" stroke-miterlimit="10" stroke-width="0.75"/>
      <path id="Path_469" data-name="Path 469" d="M288.477,292.33,390.7,277.64l1.945,23.8-98.622,21.541a15.58,15.58,0,0,1-18.895-14.747h0A15.567,15.567,0,0,1,288.477,292.33Z" transform="translate(40.57 76.048)" fill="#ff6089"/>
      <g id="Group_131" data-name="Group 131" transform="translate(277.569 322.536)">
        <g id="Group_128" data-name="Group 128" transform="translate(260.567 0)">
          <g id="Group_125" data-name="Group 125" transform="translate(24.773 33.656)">
            <path id="Path_470" data-name="Path 470" d="M448.088,291.29h0a8.373,8.373,0,0,0,9.054,9.769l53.309-5.049,2.689-16.621-57.514,4.978A8.4,8.4,0,0,0,448.088,291.29Z" transform="translate(-447.962 -279.39)" fill="#ff6089"/>
            <path id="Path_471" data-name="Path 471" d="M455.379,297.3a5.2,5.2,0,0,1-.443-10.37l56.784-6.122-2.031,12.544-53.824,3.9a1.867,1.867,0,0,1-.486.043Z" transform="translate(-447 -278.779)" fill="#fff"/>
            <path id="Path_472" data-name="Path 472" d="M494.339,279.39h49.547L541.2,296.025H491.65Z" transform="translate(-429.161 -279.39)" fill="#d34f65"/>
            <path id="Path_473" data-name="Path 473" d="M493.831,280.82h49.99l-2.031,12.544H491.8Z" transform="translate(-429.097 -278.775)" fill="#b1e3f1"/>
            <path id="Path_474" data-name="Path 474" d="M454.59,288.671l55.254-5.621H558.99" transform="translate(-445.11 -277.815)" fill="none" stroke="#d34f65" stroke-miterlimit="10" stroke-width="0.75"/>
            <path id="Path_475" data-name="Path 475" d="M454.59,291.045l54.238-5.335h40.55" transform="translate(-445.11 -276.67)" fill="none" stroke="#d34f65" stroke-miterlimit="10" stroke-width="0.75"/>
            <path id="Path_476" data-name="Path 476" d="M553.41,287.57l-50.133,1.016-38.147,2.66" transform="translate(-440.574 -275.87)" fill="none" stroke="#d34f65" stroke-miterlimit="10" stroke-width="0.75"/>
          </g>
          <g id="Group_126" data-name="Group 126" transform="translate(0 19.038)">
            <path id="Path_477" data-name="Path 477" d="M430.768,281.07h0a8.373,8.373,0,0,0,9.054,9.769l53.309-5.049,2.689-16.621-57.514,4.978A8.4,8.4,0,0,0,430.768,281.07Z" transform="translate(-430.642 -269.17)" fill="#14c664"/>
            <path id="Path_478" data-name="Path 478" d="M438.049,287.082a5.2,5.2,0,0,1-.443-10.37l56.784-6.122-2.031,12.544-53.824,3.9a1.762,1.762,0,0,1-.486.043Z" transform="translate(-429.684 -268.559)" fill="#fff"/>
            <path id="Path_479" data-name="Path 479" d="M477.019,269.17h49.547L523.877,285.8H474.33Z" transform="translate(-411.841 -269.17)" fill="#14c664"/>
            <path id="Path_480" data-name="Path 480" d="M476.511,270.6H526.5l-2.031,12.544H474.48Z" transform="translate(-411.777 -268.555)" fill="#b1e3f1"/>
            <path id="Path_481" data-name="Path 481" d="M437.27,278.451l55.254-5.621H541.67" transform="translate(-427.79 -267.595)" fill="none" stroke="#8ec198" stroke-miterlimit="10" stroke-width="0.75"/>
            <path id="Path_482" data-name="Path 482" d="M437.27,280.811l54.238-5.321h40.55" transform="translate(-427.79 -266.45)" fill="none" stroke="#8ec198" stroke-miterlimit="10" stroke-width="0.75"/>
            <path id="Path_483" data-name="Path 483" d="M536.095,277.35l-50.133,1.016-38.161,2.66" transform="translate(-423.258 -265.65)" fill="none" stroke="#8ec198" stroke-miterlimit="10" stroke-width="0.75"/>
          </g>
          <g id="Group_127" data-name="Group 127" transform="translate(29.093)">
            <path id="Path_484" data-name="Path 484" d="M560.256,267.859l-26.4,2.417L457.4,272.908l53.294-6.308Z" transform="translate(-448.22 -251.238)" fill="#a03c52"/>
            <path id="Path_485" data-name="Path 485" d="M451.108,267.76h0a8.373,8.373,0,0,0,9.054,9.769l53.309-5.049,2.689-16.621-57.514,4.978A8.371,8.371,0,0,0,451.108,267.76Z" transform="translate(-450.982 -255.86)" fill="#ac64f2"/>
            <path id="Path_486" data-name="Path 486" d="M458.389,273.772a5.2,5.2,0,0,1-.443-10.37l56.784-6.122L512.7,269.824l-53.824,3.9a2.562,2.562,0,0,1-.486.043Z" transform="translate(-450.024 -255.249)" fill="#fff"/>
            <path id="Path_487" data-name="Path 487" d="M497.363,255.86H546.91l-2.689,16.621H494.66Z" transform="translate(-432.186 -255.86)" fill="#8b41d2"/>
            <path id="Path_488" data-name="Path 488" d="M496.855,257.28h49.99l-2.031,12.544h-50Z" transform="translate(-432.121 -255.249)" fill="#b1e3f1"/>
            <path id="Path_489" data-name="Path 489" d="M457.61,265.146l55.254-5.636H562.01" transform="translate(-448.13 -254.289)" fill="none" stroke="#ac64f2" stroke-miterlimit="10" stroke-width="0.75"/>
            <path id="Path_490" data-name="Path 490" d="M457.61,267.505l54.224-5.335H552.4" transform="translate(-448.13 -253.145)" fill="none" stroke="#ac64f2" stroke-miterlimit="10" stroke-width="0.75"/>
            <path id="Path_491" data-name="Path 491" d="M556.42,264.04l-50.133,1L468.14,267.7" transform="translate(-443.598 -252.34)" fill="none" stroke="#ac64f2" stroke-miterlimit="10" stroke-width="0.75"/>
          </g>
        </g>
        <g id="Group_129" data-name="Group 129" transform="translate(176.618 46.844)">
          <path id="Path_492" data-name="Path 492" d="M371.95,326.1,767.682,288.61v12.73l-395.732,33.1Z" transform="translate(-371.95 -288.61)" fill="#ebf2ff"/>
          <path id="Path_493" data-name="Path 493" d="M383.3,329.077l3.447,32.583L755.96,345.369s1.931-47.616,0-47.459S383.3,329.077,383.3,329.077Z" transform="translate(-367.066 -284.608)" fill="#ebf2ff"/>
          <path id="Path_494" data-name="Path 494" d="M755.946,297.91c-1.931.157-372.646,31.167-372.646,31.167l.544,5.106L756.8,307.965C756.747,302.058,756.518,297.867,755.946,297.91Z" transform="translate(-367.066 -284.608)" fill="#b1e3f1"/>
        </g>
        <g id="Group_130" data-name="Group 130" transform="translate(0 46.844)">
          <path id="Path_495" data-name="Path 495" d="M248.47,326.1,644.2,288.61v12.73l-395.732,33.1Z" transform="translate(-248.47 -288.61)" fill="#fff"/>
          <path id="Path_496" data-name="Path 496" d="M259.81,329.077l3.447,32.583,370.071-8.539s1.073-55.368-.858-55.211S259.81,329.077,259.81,329.077Z" transform="translate(-243.59 -284.608)" fill="#fff"/>
          <path id="Path_497" data-name="Path 497" d="M632.466,297.91c-1.931.157-372.646,31.167-372.646,31.167l.544,5.106,372.961-26.218C633.267,302.058,633.038,297.867,632.466,297.91Z" transform="translate(-243.586 -284.608)" fill="#b1e3f1"/>
        </g>
        <path id="Path_498" data-name="Path 498" d="M520.35,297.91H696.968v47.459l-175.774,7.752Z" transform="translate(-131.47 -237.764)" fill="#8eeef2"/>
        <rect id="Rectangle_33" data-name="Rectangle 33" width="176.618" height="12.73" transform="translate(395.732 46.844)" fill="#03d2da"/>
      </g>
      <path id="Path_499" data-name="Path 499" d="M262.22,342.575V551.533s7.152,5.364,7.152,0V342.26Z" transform="translate(35.016 103.857)" fill="#ebf2ff"/>
      <path id="Path_500" data-name="Path 500" d="M388.485,387.083l-13.7-11.8a124.231,124.231,0,0,0-.973-26.433" transform="translate(83.038 106.693)" fill="none" stroke="#1f296f" stroke-miterlimit="10" stroke-width="0.75"/>
      <g id="Group_134" data-name="Group 134" transform="translate(383.404 175.593)">
        <circle id="Ellipse_32" data-name="Ellipse 32" cx="33.398" cy="33.398" r="33.398" transform="translate(0 50.739) rotate(-49.433)" fill="#1f296f"/>
        <path id="Path_501" data-name="Path 501" d="M350.495,196.619l-1.745,51.449a25.681,25.681,0,0,0,14.518,19.853h0a10.394,10.394,0,0,0,14.79-10.027l-3.09-50.949S350.009,192.772,350.495,196.619Z" transform="translate(-311.15 -134.696)" fill="#ff6089"/>
        <path id="Path_502" data-name="Path 502" d="M355.46,211.01c2.489,10.77,9.712,17.479,18.594,21.97l-.529-8.8C366.7,221.466,359.379,218.2,355.46,211.01Z" transform="translate(-308.263 -128.218)" fill="#1f296f"/>
        <path id="Path_503" data-name="Path 503" d="M405.247,190.727c.629,9.2-1.445,10.227-1.03,18.666.257,5.364,1.659,6.766.7,14.475-1.9,15.276-19.252,32.054-39.534,13.374s-26.132-44.283-10.141-60.3C366.013,166.14,403.545,165.854,405.247,190.727Z" transform="translate(-312.308 -145.882)" fill="#ff6089"/>
        <path id="Path_504" data-name="Path 504" d="M375.308,197.314a2.074,2.074,0,1,0-2.074,2.074A2.075,2.075,0,0,0,375.308,197.314Z" transform="translate(-301.507 -135.004)" fill="#1f296f"/>
        <path id="Path_505" data-name="Path 505" d="M387.608,195.854a2.074,2.074,0,1,0-2.074,2.074A2.075,2.075,0,0,0,387.608,195.854Z" transform="translate(-296.213 -135.632)" fill="#1f296f"/>
        <path id="Path_506" data-name="Path 506" d="M362.268,194.833s-1.9,7.938-1,14.675a2.082,2.082,0,0,1-3.833,1.373,71.522,71.522,0,0,1-3.862-8.41c-4.076-11.085,6.007-17.422,6.007-17.422Z" transform="translate(-309.493 -139.389)" fill="#6f0087"/>
        <path id="Path_507" data-name="Path 507" d="M404.2,170.907c-13.474-16.621-50.033-6.293-50.033-6.293l-13.588,17.207-4.405,10.77s13.7,24.459,17.307,25.26,8.754-8.94,8.754-8.94c-1.817,8,.844,26.075.844,26.075l9.326-2.618c-3.4-13.088-3.047-27.362-3.047-27.362.629-.3,1.273-.586,1.9-.858-.915-5.063-1.559-10.127.114-15.176-3.047,6.093-2.289,12.945-2.289,19.8,0-6.851-.758-13.7,2.289-19.8-1.688,5.063-1.03,10.127-.114,15.176a81.366,81.366,0,0,1,19.438-5.636,29.847,29.847,0,0,0-1.817-8.024,17.54,17.54,0,0,1,3.619,7.738,90.972,90.972,0,0,1,10.184-.887c-.2-6.236-2.9-11.486-6.193-16.749a48.491,48.491,0,0,1,9.469,16.706,62.489,62.489,0,0,1,6.651.343S415.768,185.211,404.2,170.907Z" transform="translate(-316.564 -149.548)" fill="#1f296f"/>
        <path id="Path_508" data-name="Path 508" d="M358.505,202.421s-1.588-12.029-10.155-10.971-6.365,17.078,5.993,15.376" transform="translate(-313.539 -136.664)" fill="#ff6089"/>
        <path id="Path_509" data-name="Path 509" d="M378.2,189.192a10.286,10.286,0,0,0-9.269,2.6c-4.463,4.134,6.079.243,8.654,1.345S380.842,189.822,378.2,189.192Z" transform="translate(-302.936 -137.71)" fill="#1f296f"/>
        <path id="Path_510" data-name="Path 510" d="M382.817,188.929c1.259-1.259,3.9-.8,4.734-.129,3.018,2.474-1.917,1.96-3.676,3.333S381.687,190.073,382.817,188.929Z" transform="translate(-296.758 -138.062)" fill="#1f296f"/>
        <circle id="Ellipse_33" data-name="Ellipse 33" cx="5.893" cy="5.893" r="5.893" transform="translate(60.342 67.674)" fill="#f24678"/>
        <path id="Path_511" data-name="Path 511" d="M375.936,209.05s6.394.086,8.024,4.577a4.621,4.621,0,0,1-5.564,1.259C374.748,213.455,375.936,209.05,375.936,209.05Z" transform="translate(-299.531 -129.061)" fill="#f24678"/>
        <path id="Path_512" data-name="Path 512" d="M388.371,206.94a13.068,13.068,0,0,1-11.6,0s-3.747,8.768,3.261,9.14c5.779.3,6.379-7.8,6.379-7.8" transform="translate(-299.523 -129.969)" fill="none" stroke="#1f296f" stroke-linecap="round" stroke-linejoin="round" stroke-miterlimit="10" stroke-width="0.75"/>
        <path id="Path_513" data-name="Path 513" d="M381.716,208.7s4.634-1.788,4.162-3.5a6.882,6.882,0,0,0-1.244-1.974,13.929,13.929,0,0,1-2.918-10.8h0" transform="translate(-297.03 -136.218)" fill="#ff6089" stroke="#1f296f" stroke-linecap="round" stroke-linejoin="round" stroke-miterlimit="10" stroke-width="0.75"/>
        <g id="Group_133" data-name="Group 133" transform="translate(61.758 52.097)">
          <g id="Group_132" data-name="Group 132">
            <path id="Path_514" data-name="Path 514" d="M383.977,200.068a9.168,9.168,0,1,1-9.168-9.168A9.169,9.169,0,0,1,383.977,200.068Z" transform="translate(-365.64 -188.969)" fill="none" stroke="#1f296f" stroke-linecap="round" stroke-linejoin="round" stroke-miterlimit="10" stroke-width="0.75"/>
            <path id="Path_515" data-name="Path 515" d="M396.732,198.718c0,5.063-3.261,9.168-7.266,9.168s-7.266-4.105-7.266-9.168,3.261-9.168,7.266-9.168S396.732,193.655,396.732,198.718Z" transform="translate(-358.514 -189.55)" fill="none" stroke="#1f296f" stroke-linecap="round" stroke-linejoin="round" stroke-miterlimit="10" stroke-width="0.75"/>
            <path id="Path_516" data-name="Path 516" d="M377.77,194.7a8.017,8.017,0,0,1,3.447-.93" transform="translate(-360.42 -187.734)" fill="none" stroke="#1f296f" stroke-linecap="round" stroke-linejoin="round" stroke-miterlimit="10" stroke-width="0.75"/>
          </g>
        </g>
        <path id="Path_517" data-name="Path 517" d="M401.033,197.657a36.2,36.2,0,0,0-7.71-22.871c-5.078-6.437-12.444-10.327-20.454-12.086" transform="translate(-300.771 -149.007)" fill="none" stroke="#1f296f" stroke-linecap="round" stroke-linejoin="round" stroke-miterlimit="10" stroke-width="0.75"/>
      </g>
      <path id="Path_518" data-name="Path 518" d="M400.921,494.876c3.9,6.494,12.515,2.389,20.5,2.646-1.016-1.33-2.06-2.7-3.132-4.177l-8.2-26.747-13.2-4.548C392.6,473.936,394.313,485.622,400.921,494.876Z" transform="translate(91.957 155.407)" fill="#fff"/>
      <line id="Line_90" data-name="Line 90" x1="8.196" y1="26.747" transform="translate(502.046 622.006)" fill="none" stroke="#9dbcfe" stroke-miterlimit="10" stroke-width="0.75"/>
      <path id="Path_519" data-name="Path 519" d="M423.714,497.974c-7.981-.258-16.606,3.848-20.5-2.646-6.608-9.254-8.325-20.94-4.034-32.826l-4.362-1.5L389.2,476.748l6.966,26.576a17.216,17.216,0,0,0,16.649,12.844H436.43a1.421,1.421,0,0,0,1-2.432A156.976,156.976,0,0,1,423.714,497.974Z" transform="translate(89.66 154.955)" fill="#1f296f"/>
      <g id="Group_135" data-name="Group 135" transform="translate(608.592 201.982)">
        <path id="Path_520" data-name="Path 520" d="M487.052,298.534l120.835-6.15a6.871,6.871,0,0,0,6.537-7.109V190.286a7.229,7.229,0,0,0-6.537-7.381l-120.835-11.1c-3.776-.343-7.152,3.862-7.152,8.839V289.423C479.9,294.372,483.276,298.72,487.052,298.534Z" transform="translate(-479.9 -171.486)" fill="#fff"/>
        <path id="Path_521" data-name="Path 521" d="M490.807,299.01l122.337-6.079a6.945,6.945,0,0,0,6.637-7.152V190.119a7.3,7.3,0,0,0-6.637-7.423L490.808,171.6c-3.819-.343-7.237,3.891-7.237,8.882V289.828C483.584,294.834,487,299.211,490.807,299.01Z" transform="translate(-478.321 -171.576)" fill="#03d2da"/>
      </g>
      <path id="Path_522" data-name="Path 522" d="M481.183,509.643s-4.134-18.752,16.32-21.713C497.5,487.93,499.263,504.579,481.183,509.643Z" transform="translate(129.097 166.544)" fill="#1f296f"/>
      <line id="Line_91" data-name="Line 91" x1="25.675" y2="3.719" transform="translate(339.932 363.1)" fill="none" stroke="#1f296f" stroke-miterlimit="10" stroke-width="0.75"/>
      <path id="Path_523" data-name="Path 523" d="M262.22,342.575V602.367h6.193l7.981-260.107Z" transform="translate(35.016 103.857)" fill="#fff"/>
      <line id="Line_92" data-name="Line 92" y1="8.725" x2="8.654" transform="translate(523.687 476.655)" fill="none" stroke="#1f296f" stroke-miterlimit="10" stroke-width="0.75"/>
      <path id="Path_524" data-name="Path 524" d="M296.26,262.871s17.894-1.6,30.009,16.148" transform="translate(49.665 69.677)" fill="none" stroke="#fff" stroke-miterlimit="10" stroke-width="0.75"/>
      <circle id="Ellipse_34" data-name="Ellipse 34" cx="17.164" cy="17.164" r="17.164" transform="translate(386.675 183.321)" fill="#1f296f"/>
      <path id="Path_525" data-name="Path 525" d="M415.76,400.3s-12.015-6.737-11.829,7.295c.172,12.272,13.445,20.239,18.695,21.784,9.626,2.832,15.934-4.32,12.987-9.884" transform="translate(95.999 128.136)" fill="none" stroke="#1f296f" stroke-miterlimit="10" stroke-width="0.75"/>
      <path id="Path_526" data-name="Path 526" d="M461.136,354.088c4.72,8.167,3.633,17.622-2.417,21.112s-14.775-.3-19.5-8.468-3.633-17.622,2.417-21.112S456.431,345.921,461.136,354.088Z" transform="translate(109.924 104.744)" fill="none" stroke="#1f296f" stroke-miterlimit="10" stroke-width="0.75"/>
      <g id="Group_136" data-name="Group 136" transform="translate(312.198 172.705)">
        <path id="Path_527" data-name="Path 527" d="M323.943,202.509l-4.992-5.121a3.6,3.6,0,0,0-2.575-1.116l-39.191.014a4.517,4.517,0,0,1-4.506-4.52V155.251a4.058,4.058,0,0,1,4.506-4.105l44.326,4a4.328,4.328,0,0,1,3.676,4.377l2.775,42.882C327.963,203.139,324.415,203,323.943,202.509Z" transform="translate(-272.68 -151.1)" fill="#1f296f"/>
        <path id="Path_528" data-name="Path 528" d="M326.016,202.517l-4.992-5.121a3.609,3.609,0,0,0-2.589-1.116l-39.22.014a4.517,4.517,0,0,1-4.506-4.52V155.244a4.077,4.077,0,0,1,4.506-4.119l44.355,4a4.316,4.316,0,0,1,3.676,4.377v42.381A.734.734,0,0,1,326.016,202.517Z" transform="translate(-271.806 -151.108)" fill="#ff9fd3"/>
        <path id="Path_529" data-name="Path 529" d="M315.412,166.684,281.27,164.71v-6.88l34.142,2.46Z" transform="translate(-268.983 -148.215)" fill="#fff"/>
        <line id="Line_93" data-name="Line 93" x2="34.142" y2="1.287" transform="translate(12.287 26.364)" fill="none" stroke="#1f296f" stroke-miterlimit="10" stroke-width="0.75"/>
        <line id="Line_94" data-name="Line 94" x2="34.142" y2="0.858" transform="translate(12.287 32.529)" fill="none" stroke="#1f296f" stroke-miterlimit="10" stroke-width="0.75"/>
      </g>
      <path id="Path_530" data-name="Path 530" d="M533.71,217.19v58.987l15.734-1.13Z" transform="translate(151.849 50.035)" fill="#009298"/>
      <path id="Path_531" data-name="Path 531" d="M556.969,214.38h12.315a3.816,3.816,0,0,1,3.776,3.233l15.362,98.522a3.831,3.831,0,0,1-3.776,4.42H541.063a2.987,2.987,0,0,0-.358.014L488.57,325.5l47.816-11.729a38.48,38.48,0,0,1,9.126-1.1h6.336a5.718,5.718,0,0,0,5.707-5.993l-4.405-88.295A3.809,3.809,0,0,1,556.969,214.38Z" transform="translate(132.423 48.825)" fill="#03d2da"/>
      <path id="Path_532" data-name="Path 532" d="M533.712,218.4a3.821,3.821,0,0,1,3.819-4.019h12.315a3.816,3.816,0,0,1,3.776,3.233l15.362,98.522a3.831,3.831,0,0,1-3.776,4.42" transform="translate(151.847 48.825)" fill="none" stroke="#00acb2" stroke-linecap="round" stroke-linejoin="round" stroke-miterlimit="10" stroke-width="0.75"/>
      <path id="Path_533" data-name="Path 533" d="M525.423,332.413l.7,274.739h-7.867L510.29,331.14Z" transform="translate(141.77 99.072)" fill="#fff"/>
      <g id="Group_137" data-name="Group 137" transform="translate(423.077 321.343)">
        <path id="Path_534" data-name="Path 534" d="M384.356,261.279,360.2,268.931l-7.538,2.389a1.893,1.893,0,0,1-2.346-1.173,2.022,2.022,0,0,1-.114-.629,1.9,1.9,0,0,1,1.316-1.8l9.14-2.932,16.063-5.164,6.022,1.03A4.289,4.289,0,0,1,384.356,261.279Z" transform="translate(-350.2 -253.049)" fill="#1f296f"/>
        <path id="Path_535" data-name="Path 535" d="M356.552,285.446l2.546-23.229a4.387,4.387,0,0,1,5.106-3.848l16.635,2.846a4.384,4.384,0,0,1,3,2.045l4.363,7.152a4.332,4.332,0,0,1,.572,3.032l-.415,2.4a4.4,4.4,0,0,1-3.5,3.576l-2.6.5a4.348,4.348,0,0,0-3.476,3.433c-1.345,6.751-6.065,23.286-20.354,26.418a27.411,27.411,0,0,1-2.131-23.3A4.524,4.524,0,0,0,356.552,285.446Z" transform="translate(-348.299 -253.615)" fill="#ff6089"/>
        <path id="Path_536" data-name="Path 536" d="M360.41,259.752l10.627-4.062a10.024,10.024,0,0,1,7.209.014l3.333,1.287a2.112,2.112,0,0,1,.844,3.376,2.789,2.789,0,0,1-1.888,1.044c-.515,0-3.533-1.116-4.763-.844a17.114,17.114,0,0,0-6.522,3.562" transform="translate(-345.806 -255.026)" fill="#ff6089"/>
        <path id="Path_537" data-name="Path 537" d="M380.125,257.07l-11.385,3.647,6.022,1.03a4.29,4.29,0,0,1,1.616.629l5.235-1.659A4.729,4.729,0,0,1,380.125,257.07Z" transform="translate(-342.222 -254.147)" fill="#1f296f"/>
        <path id="Path_538" data-name="Path 538" d="M380.1,259.974l2.732-2.932a.16.16,0,0,0-.114-.272h-4.391a2.006,2.006,0,0,0-.586.086l-1.03.329a4.74,4.74,0,0,0,1.488,3.647l1.087-.343A1.767,1.767,0,0,0,380.1,259.974Z" transform="translate(-338.801 -254.276)" fill="#ebf2ff"/>
      </g>
      <path id="Path_539" data-name="Path 539" d="M349.226,350.7s-13.331,13.717-35.716,4.52" transform="translate(57.088 107.489)" fill="none" stroke="#1f296f" stroke-miterlimit="10" stroke-width="0.75"/>
      <g id="Group_139" data-name="Group 139" transform="translate(738.88 317.816)">
        <g id="Group_138" data-name="Group 138" transform="translate(5.119)">
          <path id="Path_540" data-name="Path 540" d="M588.317,268.957s-10.341-2.532-12.644-8.124-1.373,10.57,6.322,12.258" transform="translate(-574.568 -249.504)" fill="#14c664"/>
          <path id="Path_541" data-name="Path 541" d="M588.176,269.4s-7.438-6.737-7.209-11.571-6.594,6.437,0,13.56" transform="translate(-573.053 -250.793)" fill="#14c664"/>
          <path id="Path_542" data-name="Path 542" d="M584.358,270.411s-6.508-11.114,2.76-17.851v21.755" transform="translate(-571.31 -252.56)" fill="#14c664"/>
          <path id="Path_543" data-name="Path 543" d="M587.08,268.957s10.341-2.532,12.644-8.124S601.1,271.4,593.4,273.09" transform="translate(-569.183 -249.504)" fill="#14c664"/>
          <path id="Path_544" data-name="Path 544" d="M586.12,269.4s7.438-6.737,7.209-11.571,6.594,6.437,0,13.56" transform="translate(-569.596 -250.793)" fill="#14c664"/>
          <path id="Path_545" data-name="Path 545" d="M588.391,270.411S594.9,259.3,585.63,252.56v21.755" transform="translate(-569.807 -252.56)" fill="#14c664"/>
        </g>
        <path id="Path_546" data-name="Path 546" d="M571.062,270.679l4.463,24.244a4.551,4.551,0,0,0,4.463,3.719h21.941a4.534,4.534,0,0,0,4.448-3.633l4.906-24.244a4.534,4.534,0,0,0-4.448-5.435h-31.31A4.531,4.531,0,0,0,571.062,270.679Z" transform="translate(-570.989 -247.065)" fill="#fff"/>
      </g>
      <path id="Path_547" data-name="Path 547" d="M417.145,472.419s-14.017,7.967-24.015-8.282l15.448-10.427Z" transform="translate(91.352 151.818)" fill="#0c50aa"/>
      <path id="Path_548" data-name="Path 548" d="M363.431,246.97h0a6.647,6.647,0,0,1-.086,6.608,10.951,10.951,0,0,0-1.187,6.78" transform="translate(77.984 62.85)" fill="none" stroke="#1f296f" stroke-linecap="round" stroke-linejoin="round" stroke-miterlimit="10" stroke-width="0.75"/>
      <g id="Group_140" data-name="Group 140" transform="translate(535.073 116.81)">
        <path id="Path_549" data-name="Path 549" d="M432.19,225.756l52.236.915A3.429,3.429,0,0,0,488,223.253V120.44a3.7,3.7,0,0,0-3.4-3.633l-52.25-4.763a3.518,3.518,0,0,0-3.848,3.5v106.46A3.827,3.827,0,0,0,432.19,225.756Z" transform="translate(-428.5 -112.03)" fill="#b078f0"/>
        <path id="Path_550" data-name="Path 550" d="M436.45,132.993l36.459,2.875v-6.723L436.45,126.07Z" transform="translate(-425.079 -105.988)" fill="#8eeef2"/>
        <line id="Line_95" data-name="Line 95" x1="35.844" y1="2.517" transform="translate(11.986 37.976)" fill="none" stroke="#fff" stroke-miterlimit="10" stroke-width="0.75"/>
        <line id="Line_96" data-name="Line 96" x1="35.844" y1="2.331" transform="translate(11.986 44.212)" fill="none" stroke="#fff" stroke-miterlimit="10" stroke-width="0.75"/>
        <line id="Line_97" data-name="Line 97" x1="35.844" y1="2.131" transform="translate(11.986 50.992)" fill="none" stroke="#fff" stroke-miterlimit="10" stroke-width="0.75"/>
        <path id="Path_551" data-name="Path 551" d="M458.074,162.689h0a2.179,2.179,0,0,0,2.317-2.16v-1.616a2.375,2.375,0,0,0-2.26-2.331h0a2.174,2.174,0,0,0-2.331,2.16v1.616A2.378,2.378,0,0,0,458.074,162.689Z" transform="translate(-416.752 -92.859)" fill="#8eeef2"/>
        <path id="Path_552" data-name="Path 552" d="M450.136,162.341h.143a2.16,2.16,0,0,0,2.289-2.145v-1.7a2.345,2.345,0,0,0-2.231-2.3h-.143a2.155,2.155,0,0,0-2.3,2.146v1.7A2.347,2.347,0,0,0,450.136,162.341Z" transform="translate(-420.156 -93.027)" fill="#fff"/>
        <path id="Path_553" data-name="Path 553" d="M442.057,162l.286.014a2.135,2.135,0,0,0,2.26-2.146v-1.788a2.317,2.317,0,0,0-2.2-2.289l-.286-.014a2.139,2.139,0,0,0-2.274,2.146v1.788A2.33,2.33,0,0,0,442.057,162Z" transform="translate(-423.62 -93.203)" fill="#8eeef2"/>
        <path id="Path_554" data-name="Path 554" d="M458.117,171.608h0a2.156,2.156,0,0,0,2.274-2.146v-1.616a2.4,2.4,0,0,0-2.3-2.346h0a2.152,2.152,0,0,0-2.289,2.146v1.616A2.4,2.4,0,0,0,458.117,171.608Z" transform="translate(-416.752 -89.02)" fill="#fff"/>
        <path id="Path_555" data-name="Path 555" d="M450.178,171.355h.143a2.137,2.137,0,0,0,2.246-2.131v-1.7a2.378,2.378,0,0,0-2.274-2.331h-.143a2.135,2.135,0,0,0-2.26,2.146v1.7A2.368,2.368,0,0,0,450.178,171.355Z" transform="translate(-420.156 -89.153)" fill="#8eeef2"/>
        <path id="Path_556" data-name="Path 556" d="M442.1,171.1l.286.014a2.113,2.113,0,0,0,2.217-2.131v-1.788a2.35,2.35,0,0,0-2.246-2.317l-.286-.014a2.125,2.125,0,0,0-2.231,2.131v1.788A2.353,2.353,0,0,0,442.1,171.1Z" transform="translate(-423.62 -89.295)" fill="#fff"/>
      </g>
      <g id="Group_141" data-name="Group 141" transform="translate(328.017 366.733)">
        <path id="Path_557" data-name="Path 557" d="M283.74,322.118v-32.04a3.321,3.321,0,0,1,3.318-3.318H308.9a3.321,3.321,0,0,1,3.318,3.318v29.35Z" transform="translate(-283.74 -286.76)" fill="#fff"/>
        <path id="Path_558" data-name="Path 558" d="M299.524,292.09h9.426a5.379,5.379,0,0,1,5.292,6.336l-1.788,9.969a6.721,6.721,0,0,1-6.622,5.535H299.51" transform="translate(-276.954 -284.466)" fill="none" stroke="#fff" stroke-miterlimit="10" stroke-width="4"/>
      </g>
      <path id="Path_559" data-name="Path 559" d="M521.263,343.533,520.19,611.865h6.165l6.88-291.674" transform="translate(146.03 94.359)" fill="#8eeef2"/>
      <path id="Path_560" data-name="Path 560" d="M274.531,342.342l8.654-.272L272.4,602.449h-5.85Z" transform="translate(36.88 103.775)" fill="#b1e3f1"/>
    </g>
  </g>
</svg>
