<svg xmlns="http://www.w3.org/2000/svg" xmlns:xlink="http://www.w3.org/1999/xlink" width="293.467" height="306.146" viewBox="0 0 293.467 306.146">
  <defs>
    <linearGradient id="linear-gradient" x1="1.962" y1="0.03" x2="-0.645" y2="0.638" gradientUnits="objectBoundingBox">
      <stop offset="0" stop-color="#c7f5f7"/>
      <stop offset="1" stop-color="#fff"/>
    </linearGradient>
    <linearGradient id="linear-gradient-2" x1="1.962" y1="0.03" x2="-0.645" y2="0.638" gradientUnits="objectBoundingBox">
      <stop offset="0" stop-color="#03d2da"/>
      <stop offset="1" stop-color="#fff"/>
    </linearGradient>
  </defs>
  <g id="world-pin" transform="translate(-0.384 0)">
    <path id="Path_1439" data-name="Path 1439" d="M289.458,112.13A244.584,244.584,0,0,1,268,138.142c.216,2.932.444,5.865.444,8.886a119.647,119.647,0,0,1-10.955,49.928l-8.886-8.594a12.568,12.568,0,0,0-6.347-3.326l-38.084-7.617a12.606,12.606,0,0,0-6.982.571l-39.353,14.916a12.7,12.7,0,0,0-7.426,7.528l-11.425,31.3L116,256.633a12.415,12.415,0,0,0-2.882,5.8,120.294,120.294,0,0,1-43.771-24.12L71,231.32l20.54-17.239a12.7,12.7,0,0,0,4.05-13.215L87.03,170.907a12.5,12.5,0,0,0-2.92-5.179L69.232,149.821l-1.993-3.389,7.35-6.271,30.074-15.234a12.7,12.7,0,0,0,6.817-9.47l4.913-33.209a12.7,12.7,0,0,0-3.3-10.537l-19.943-21.2a11.133,11.133,0,0,0-1.155-1.181l-6.538-5.37a119.964,119.964,0,0,1,53.14-17.1A84.482,84.482,0,0,1,150.541,1.141c-.939-.025-1.8-.14-2.691-.14A146.724,146.724,0,1,0,289.459,112.131Z" transform="translate(0 11.697)" fill="url(#linear-gradient)"/>
    <path id="Path_1440" data-name="Path 1440" d="M76.477,0A62.775,62.775,0,0,0,13,63.477c0,35.545,49.509,81.246,54.587,85.054a12.276,12.276,0,0,0,17.772,0c5.078-3.808,54.587-49.509,54.587-85.054A62.775,62.775,0,0,0,76.477,0Zm0,88.862a25.389,25.389,0,1,1,25.389-25.389A25.389,25.389,0,0,1,76.477,88.866Z" transform="translate(147.541 0)" fill="url(#linear-gradient-2)"/>
  </g>
</svg>
